<?xml version="1.0" encoding="UTF-8"?>
<svg width="121px" height="120px" viewBox="0 0 121 120" version="1.1" xmlns="http://www.w3.org/2000/svg" xmlns:xlink="http://www.w3.org/1999/xlink">
    <!-- Generator: Sketch 49 (51002) - http://www.bohemiancoding.com/sketch -->
    <title>avatar-placeholder</title>
    <desc>Created with Sketch.</desc>
    <defs>
        <path d="M119.748088,59.8740441 C119.748088,26.8059617 92.9407176,0 59.8740441,0 C26.8052573,0 0,26.8059617 0,59.8740441 C0,92.941422 26.8052573,119.748793 59.8740441,119.748793 C92.9407176,119.748793 119.748088,92.941422 119.748088,59.8740441 Z" id="path-1"></path>
    </defs>
    <g id="Account" stroke="none" stroke-width="1" fill="none" fill-rule="evenodd">
        <g id="LMbet_Account" transform="translate(-220.000000, -300.000000)">
            <g id="user-card" transform="translate(70.000000, 220.000000)">
                <g id="ava" transform="translate(130.000000, 60.000000)">
                    <g id="avatar-placeholder" transform="translate(20.000000, 20.000000)">
                        <path d="M120.108037,60.0332386 C120.108037,26.9658607 93.3013707,0.159898918 60.2346972,0.159898918 C27.1666148,0.159898918 0.359948665,26.9658607 0.359948665,60.0332386 C0.359948665,93.1006165 27.1666148,119.907283 60.2346972,119.907283 C93.3013707,119.907283 120.108037,93.1006165 120.108037,60.0332386" id="b1" fill="#E99B2E"></path>
                        <path d="M120.108037,60.0332386 C120.108037,26.9658607 93.3013707,0.159898918 60.2346972,0.159898918 L60.2346972,119.907283 C93.3013707,119.907283 120.108037,93.1006165 120.108037,60.0332386" id="b2" fill="#E1942E"></path>
                        <g id="ava" transform="translate(0.547511, 0.000000)">
                            <mask id="mask-2" fill="white">
                                <use xlink:href="#path-1"></use>
                            </mask>
                            <g id="Clip-106"></g>
                            <polygon id="Fill-105" fill="#CFA085" mask="url(#mask-2)" points="51.1421031 94.3607891 68.6760409 94.3607891 68.6760409 75.1341769 51.1421031 75.1341769"></polygon>
                            <path d="M68.56545,85.3641857 L71.5556302,85.3641857 C77.1267339,86.7997539 83.2219116,87.8176127 87.2792586,92.5152597 C89.8066476,95.4420439 94.1978804,119.908691 94.1978804,119.908691 L59.7977767,119.908691 L59.7977767,92.2088455 C64.6398259,92.2088455 68.56545,89.1447032 68.56545,85.3641857" id="Fill-107" fill="#B63E42" mask="url(#mask-2)"></path>
                            <path d="M51.0301035,85.3641857 L48.0455585,85.3641857 C42.4751592,86.7997539 36.3736419,87.8176127 32.3162949,92.5152597 C29.7882014,95.4420439 25.397673,119.908691 25.397673,119.908691 L59.7977767,119.908691 L59.7977767,92.2088455 C54.9557276,92.2088455 51.0301035,89.1447032 51.0301035,85.3641857" id="Fill-108" fill="#B63E42" mask="url(#mask-2)"></path>
                            <path d="M59.9083676,20.1183832 C68.4217523,20.1183832 81.8849594,24.9583192 81.8849594,47.6364939 C81.8849594,60.7312995 77.6162922,69.309489 75.7559705,71.6826144 C74.0449816,73.8655516 64.4221661,78.518117 59.9083676,78.518117 C59.9083676,55.5983329 59.9083676,20.1183832 59.9083676,20.1183832" id="Fill-109" fill="#E3BB9F" mask="url(#mask-2)"></path>
                            <path d="M86.1198153,53.0441767 C86.4952608,49.4207404 84.7687751,46.205152 82.2646313,45.8607002 C79.7590786,45.5176571 77.4246953,48.1774735 77.0485454,51.8009097 C76.6730999,55.4236416 78.3995856,58.6385256 80.9058427,58.982273 C83.4092821,59.3253161 85.7443698,56.6662041 86.1198153,53.0441767" id="Fill-110" fill="#E3BB9F" mask="url(#mask-2)"></path>
                            <path d="M59.9083676,20.1183832 C51.3949829,20.1183832 37.9317758,24.9583192 37.9317758,47.6364939 C37.9317758,60.7312995 42.200443,69.309489 44.0607647,71.6826144 C45.772458,73.8655516 55.3938647,78.518117 59.9083676,78.518117 C59.9083676,55.5983329 59.9083676,20.1183832 59.9083676,20.1183832" id="Fill-111" fill="#EFD4B6" mask="url(#mask-2)"></path>
                            <path d="M33.6969199,53.0441767 C33.3214744,49.4207404 35.0479601,46.205152 37.5521039,45.8607002 C40.0576566,45.5176571 42.3920399,48.1774735 42.7674854,51.8009097 C43.1436353,55.4236416 41.4164452,58.6385256 38.9115969,58.982273 C36.4074531,59.3253161 34.071661,56.6662041 33.6969199,53.0441767" id="Fill-112" fill="#EFD4B6" mask="url(#mask-2)"></path>
                            <path d="M59.9083676,69.9624683 C63.8769601,69.9624683 67.0932529,68.6515789 67.0932529,67.0349798 L52.7241867,67.0349798 C52.7241867,68.6515789 55.9404795,69.9624683 59.9083676,69.9624683" id="Fill-113" fill="#FFFFFE" mask="url(#mask-2)"></path>
                            <path d="M77.6191098,49.4348284 C78.5355349,47.0955143 80.3486619,45.5979588 82.2646313,45.8607002 C82.2688577,45.8614046 82.2744929,45.8628134 82.2794237,45.8642222 C83.1479495,43.1741166 83.4599989,39.9761382 82.2674489,36.5823365 C75.9278442,18.533482 83.1289307,15.3108497 83.1289307,15.3108497 C83.1289307,15.3108497 76.1180323,14.9973914 70.6793559,19.4992152 C74.4295843,13.6850933 76.1180323,12.1840158 76.1180323,12.1840158 C76.1180323,12.1840158 68.2414257,10.4962721 59.8027075,19.1230653 C61.6778217,14.4345754 63.9283814,12.0501797 63.9283814,12.0501797 C63.9283814,12.0501797 46.2993496,12.1840158 39.9224117,24.9371872 C36.287705,32.2066005 36.0073536,40.0810939 36.8871499,46.0339827 C37.101992,45.9557942 37.3224694,45.8923982 37.5521039,45.8607002 C38.384001,45.7472917 39.1947659,45.9691778 39.9224117,46.442535 C39.9224117,43.691851 39.9224117,41.259556 39.9224117,40.8784753 C43.2986034,39.3773978 46.8621656,37.5022836 46.6740907,30.0004181 C54.5514017,30.0004181 58.864446,30.0004181 58.864446,30.0004181 L71.4295425,30.0004181 C71.4295425,30.0004181 70.8667265,38.4405451 77.6191098,40.5030298 C77.6191098,44.0222148 77.6191098,47.1279167 77.6191098,49.4348284" id="Fill-114" fill="#483428" mask="url(#mask-2)"></path>
                            <path d="M59.8012987,94.4298203 C66.2923495,94.4298203 71.5556302,90.3710645 71.5556302,85.3641857 L68.544318,85.3641857 C68.544318,89.1376592 64.6313731,92.1982795 59.8012987,92.2081411 C54.9691112,92.1982795 51.0575751,89.1376592 51.0575751,85.3641857 L48.0455585,85.3641857 C48.0455585,90.3710645 53.3088391,94.4298203 59.8012987,94.4298203" id="Fill-115" fill="#1D8C80" mask="url(#mask-2)"></path>
                        </g>
                    </g>
                </g>
            </g>
        </g>
    </g>
</svg>