<svg xmlns="http://www.w3.org/2000/svg" width="12" height="12" viewBox="0 0 12 12">
    <g fill="#6D5D92" fill-rule="nonzero">
        <path d="M11.428.427a1.704 1.704 0 0 0-2.401.144l-7.56 8.6a.955.955 0 0 0-1.194.11.938.938 0 0 0 0 1.324l1.121 1.121a.932.932 0 0 0 .663.274.932.932 0 0 0 .936-.936.929.929 0 0 0-.165-.531l8.602-7.565a1.688 1.688 0 0 0 .566-1.37 1.688 1.688 0 0 0-.568-1.17zm-9.384 9.796a.375.375 0 0 0-.018.547l.163.163a.185.185 0 0 1 .054.131c0 .03-.007.084-.054.131-.083.083-.157.107-.264 0L.803 10.073a.186.186 0 1 1 .263-.263l.163.163a.34.34 0 0 0 .277.11.372.372 0 0 0 .27-.127l1.328-1.512.45.45-1.51 1.33zm8.963-7.892a.915.915 0 0 1-.076.077L4.12 8.398l-.518-.517L9.59 1.069a.95.95 0 0 1 1.658.574.946.946 0 0 1-.241.688zM1.5 3a1.5 1.5 0 0 0 .002-3H1.5A1.5 1.5 0 0 0 1.5 3zM1.502.75a.75.75 0 1 1-.003 1.501A.75.75 0 0 1 1.5.75z"/>
    </g>
</svg>
