<?xml version="1.0" encoding="UTF-8"?>
<svg width="12px" height="12px" viewBox="0 0 12 12" version="1.1" xmlns="http://www.w3.org/2000/svg" xmlns:xlink="http://www.w3.org/1999/xlink">
    <!-- Generator: Sketch 50.2 (55047) - http://www.bohemiancoding.com/sketch -->
    <title>basketball</title>
    <desc>Created with Sketch.</desc>
    <defs></defs>
    <g id="Line" stroke="none" stroke-width="1" fill="none" fill-rule="evenodd">
        <g id="LMbet_Line" transform="translate(-29.000000, -1606.000000)" fill="#6D5D92" fill-rule="nonzero">
            <g id="Виды-Спорта-" transform="translate(10.000000, 805.000000)">
                <g id="sports-2" transform="translate(0.000000, 786.000000)">
                    <g id="icons" transform="translate(19.000000, 15.000000)">
                        <path d="M11.8875,4.83 C11.835,4.5825 11.775,4.3425 11.6925,4.11 C11.25,2.7675 10.3425,1.6275 9.1575,0.9 C8.925,0.75 8.6775,0.6225 8.4225,0.51 C7.68,0.18 6.8625,0 6,0 C5.205,0 4.455,0.1575 3.7575,0.4425 L3.75,0.4425 C3.4125,0.5775 3.0825,0.7425 2.7825,0.9375 C1.7775,1.575 0.975,2.505 0.495,3.6075 C0.36,3.915 0.255,4.2375 0.1725,4.575 C0.06,5.0325 0,5.505 0,6 C0,6.405 0.0375,6.795 0.1125,7.1775 C0.165,7.425 0.2325,7.665 0.3075,7.8975 L0.3075,7.905 C0.75,9.2325 1.6425,10.35 2.8125,11.085 C3.0675,11.2425 3.3375,11.3925 3.615,11.5125 L3.6225,11.5125 C4.35,11.8275 5.16,12 6,12 C6.885,12 7.7325,11.805 8.49,11.46 C8.76,11.34 9.015,11.1975 9.2625,11.0325 C10.005,10.5525 10.635,9.915 11.1,9.165 C11.2875,8.8575 11.4525,8.5275 11.5875,8.1825 C11.8575,7.5075 12,6.7725 12,6 C12,5.6025 11.9625,5.205 11.8875,4.83 Z M9.0975,1.77 C9.96,2.3925 10.62,3.285 10.9725,4.32 C10.7175,4.44 10.485,4.59 10.275,4.77 C10.08,4.935 9.9,5.1375 9.75,5.3625 C9.405,5.025 9.0225,4.71 8.61,4.44 C8.8425,3.585 9.0075,2.685 9.0975,1.77 Z M6,0.75 C6.855,0.75 7.665,0.9525 8.385,1.3275 C8.3175,2.2575 8.1675,3.1725 7.9425,4.035 C7.4625,3.7725 6.945,3.555 6.4125,3.3825 C6.405,2.385 5.805,1.515 4.7625,0.9 C5.16,0.8025 5.5725,0.75 6,0.75 Z M3.765,1.2525 C4.845,1.695 5.5425,2.3925 5.64,3.1875 C5.0325,3.0525 4.41,2.985 3.765,2.985 C2.985,2.985 2.235,3.0825 1.515,3.27 C2.0475,2.4 2.835,1.6875 3.765,1.2525 Z M0.75,6 C0.75,5.3625 0.8625,4.755 1.0725,4.1925 C1.905,3.9 2.8125,3.735 3.765,3.735 C4.3875,3.735 4.995,3.8025 5.5725,3.9375 C5.2275,4.98 3.8325,6.1875 0.8475,6.99 C0.78,6.6675 0.75,6.3375 0.75,6 Z M3.5775,10.6575 C2.4,10.0425 1.485,8.9925 1.0425,7.725 C4.32,6.8325 5.88,5.43 6.2925,4.14 C6.795,4.2975 7.275,4.515 7.725,4.77 C7.1925,6.465 6.3525,7.995 5.25,9.2175 C4.725,9.795 4.1625,10.2825 3.5775,10.6575 Z M8.535,10.5975 C7.785,11.0175 6.915,11.25 6,11.25 C5.4375,11.25 4.8975,11.16 4.395,11.0025 C4.89,10.6425 5.3625,10.215 5.805,9.72 C6.9375,8.46 7.8075,6.915 8.3775,5.19 C8.7375,5.445 9.075,5.73 9.375,6.0375 C8.8875,7.1175 8.655,8.6325 8.535,10.5975 Z M9.33,10.0575 C9.4275,8.6625 9.6075,7.53 9.9225,6.6825 C10.275,7.14 10.56,7.635 10.7775,8.1675 C10.4475,8.9025 9.945,9.5475 9.33,10.0575 Z M11.1225,7.1475 C10.8825,6.7125 10.5975,6.3075 10.2825,5.925 C10.4175,5.6925 10.5825,5.49 10.7625,5.3325 C10.8825,5.2275 11.0175,5.1375 11.16,5.0625 C11.22,5.3625 11.25,5.6775 11.25,6 C11.25,6.3975 11.205,6.78 11.1225,7.1475 Z" id="basketball"></path>
                    </g>
                </g>
            </g>
        </g>
    </g>
</svg>