<svg xmlns="http://www.w3.org/2000/svg" width="11" height="13" viewBox="0 0 11 13">
    <path fill="#6D5D92" fill-rule="nonzero" d="M10.14 3.52c-.158-.45-.4-.755-.716-.957.042-.709-.332-1.36-1.077-1.86C7.405.075 6.204-.114 4.329.066c-1.405.138-2.361.58-3.102 1.432-1.251 1.439-1.232 4.62.876 7.584a.756.756 0 0 0-.184.482v1.905c0 .423.345.768.767.768h5.338a.769.769 0 0 0 .767-.768V9.563a.752.752 0 0 0-.187-.485 11.57 11.57 0 0 0 1.287-2.403c.477-1.249.559-2.28.25-3.154zM8.03 11.469c0 .001-.002.003-.004.003l-5.342-.003.004-1.91 5.342.005v1.905zm1.149-5.066c-.31.814-.794 1.692-1.306 2.393H2.837C.863 6.127.75 3.209 1.802 1.998c.611-.703 1.39-1.054 2.6-1.171C6.087.66 7.14.815 7.922 1.34c.428.287.669.608.726.958-.612-.059-1.344.19-1.65 1.06-.086.241-.088.648.021 1.028-1.68.626-2.88.195-3.334-.04-.56-.288-.86-.667-.911-.916a.382.382 0 1 0-.748.153c.044.218.165.434.325.642a.808.808 0 0 1-.237-.058.382.382 0 0 0-.331.689c.203.099.47.147.742.147.213 0 .421-.04.614-.1.067.04.126.085.197.123a4.306 4.306 0 0 0 1.978.458c.678 0 1.389-.147 2.093-.425.138.134.3.233.484.282a.385.385 0 0 0 .468-.27.383.383 0 0 0-.27-.469c-.04-.01-.161-.043-.263-.237-.145-.276-.141-.66-.108-.756.188-.53.6-.585.907-.55.352.049.607.184.796.717.246.696.166 1.555-.243 2.626z"/>
</svg>
