<?xml version="1.0" encoding="UTF-8"?>
<svg width="24px" height="24px" viewBox="0 0 24 24" version="1.1" xmlns="http://www.w3.org/2000/svg" xmlns:xlink="http://www.w3.org/1999/xlink">
    <!-- Generator: Sketch 50.2 (55047) - http://www.bohemiancoding.com/sketch -->
    <title>coupon</title>
    <desc>Created with Sketch.</desc>
    <defs></defs>
    <g id="Line" stroke="none" stroke-width="1" fill="none" fill-rule="evenodd">
        <g id="LMbet_Line-Match-Mob" transform="translate(-247.000000, -1115.000000)" fill="#FFFFFF" fill-rule="nonzero">
            <g id="coupon-btn" transform="translate(230.000000, 1096.000000)">
                <g id="coupon" transform="translate(17.000000, 19.000000)">
                    <path d="M23.4279771,0 L5.72262857,0 C5.43853714,0 5.20834286,0.230194286 5.20834286,0.514285714 L5.20834286,10.7384914 L0.514285714,10.7384914 C0.230194286,10.7384914 0,10.9686857 0,11.2527771 L0,19.9697829 C0,21.68928 1.39885714,23.0883429 3.11842286,23.0883429 C3.16272,23.0883429 20.8237714,23.0883429 20.8237714,23.0883429 C22.5432686,23.0883429 23.9423314,21.6893486 23.9423314,19.9697829 L23.9423314,0.514285714 C23.9422629,0.230194286 23.7120686,0 23.4279771,0 Z M1.02857143,19.9697829 L1.02857143,11.7670629 L5.20834286,11.7670629 L5.20834286,19.9697829 C5.20834286,21.1221257 4.27083429,22.0597714 3.11835429,22.0597714 C1.96608,22.0597714 1.02857143,21.1221257 1.02857143,19.9697829 Z M22.9136914,19.9697829 C22.9136914,21.1221257 21.9761829,22.0597714 20.8237029,22.0597714 L5.43106286,22.0597714 C5.93156571,21.5064 6.23691429,20.77296 6.23691429,19.9697829 L6.23691429,1.02857143 L22.9136914,1.02857143 L22.9136914,19.9697829 Z" id="Shape"></path>
                    <path d="M13.8530057,5.94020571 L20.4445714,5.94020571 C20.7286629,5.94020571 20.9588571,5.71001143 20.9588571,5.42592 C20.9588571,5.14182857 20.7286629,4.91163429 20.4445714,4.91163429 L13.8530057,4.91163429 C13.5689143,4.91163429 13.33872,5.14182857 13.33872,5.42592 C13.33872,5.71001143 13.5689829,5.94020571 13.8530057,5.94020571 Z" id="Shape"></path>
                    <path d="M13.8530057,11.5900114 L20.4445714,11.5900114 C20.7286629,11.5900114 20.9588571,11.3598171 20.9588571,11.0757257 C20.9588571,10.7916343 20.7286629,10.56144 20.4445714,10.56144 L13.8530057,10.56144 C13.5689143,10.56144 13.33872,10.7916343 13.33872,11.0757257 C13.33872,11.3598171 13.5689829,11.5900114 13.8530057,11.5900114 Z" id="Shape"></path>
                    <path d="M13.8530057,17.2399543 L20.4445714,17.2399543 C20.7286629,17.2399543 20.9588571,17.00976 20.9588571,16.7256686 C20.9588571,16.4415771 20.7286629,16.2113829 20.4445714,16.2113829 L13.8530057,16.2113829 C13.5689143,16.2113829 13.33872,16.4415771 13.33872,16.7256686 C13.33872,17.0096914 13.5689829,17.2399543 13.8530057,17.2399543 Z" id="Shape"></path>
                    <path d="M9.10724571,6.51894857 C9.20448,6.62180571 9.33977143,6.68009143 9.48116571,6.68009143 C9.48253714,6.68009143 9.48397714,6.68009143 9.48548571,6.68009143 C9.62852571,6.67885714 9.76457143,6.61824 9.86105143,6.51257143 L12.6859886,3.41856 C12.8775086,3.2088 12.8626286,2.88349714 12.6529371,2.69197714 C12.4431771,2.50059429 12.1178743,2.51533714 11.9263543,2.72502857 L9.47478857,5.41001143 L8.71165714,4.60189714 C8.51650286,4.39536 8.19092571,4.38617143 7.98452571,4.58112 C7.77798857,4.77613714 7.7688,5.10157714 7.96374857,5.30811429 L9.10724571,6.51894857 Z" id="Shape"></path>
                    <path d="M11.9263543,8.62038857 L9.47478857,11.3052343 L8.71152,10.4972571 C8.51650286,10.2905829 8.19092571,10.2813943 7.98452571,10.47648 C7.77798857,10.6714971 7.7688,10.9969371 7.96374857,11.2034743 L9.10724571,12.4141714 C9.20448,12.5170286 9.33977143,12.5753143 9.48116571,12.5753143 C9.48253714,12.5753143 9.48397714,12.5753143 9.48548571,12.5753143 C9.62852571,12.57408 9.76457143,12.5134629 9.86105143,12.4077943 L12.6859886,9.31392 C12.8773714,9.10416 12.8626286,8.77885714 12.6529371,8.58733714 C12.4432457,8.39581714 12.1178743,8.41056 11.9263543,8.62038857 Z" id="Shape"></path>
                    <path d="M11.9263543,14.51568 L9.47478857,17.2005257 L8.71152,16.3925486 C8.51650286,16.1858743 8.19092571,16.1766171 7.98452571,16.3717714 C7.77798857,16.5667886 7.7688,16.8922286 7.96374857,17.0987657 L9.10724571,18.3094629 C9.20448,18.41232 9.33977143,18.4706057 9.48116571,18.4706057 C9.48253714,18.4706057 9.48397714,18.4706057 9.48548571,18.4706057 C9.62852571,18.4693714 9.76457143,18.4087543 9.86105143,18.3030857 L12.6859886,15.2092114 C12.8773714,14.9994514 12.8626286,14.6741486 12.6529371,14.4826286 C12.4431771,14.2911086 12.1178743,14.30592 11.9263543,14.51568 Z" id="Shape"></path>
                </g>
            </g>
        </g>
    </g>
</svg>