<?xml version="1.0" encoding="UTF-8"?>
<svg width="12px" height="12px" viewBox="0 0 12 12" version="1.1" xmlns="http://www.w3.org/2000/svg" xmlns:xlink="http://www.w3.org/1999/xlink">
    <!-- Generator: Sketch 50.2 (55047) - http://www.bohemiancoding.com/sketch -->
    <title>football</title>
    <desc>Created with Sketch.</desc>
    <defs></defs>
    <g id="Line" stroke="none" stroke-width="1" fill="none" fill-rule="evenodd">
        <g id="LMbet_Line" transform="translate(-30.000000, -156.000000)" fill="#715B96" fill-rule="nonzero">
            <g id="Популярное" transform="translate(10.000000, 90.000000)">
                <path d="M26.0001275,66 C22.0521943,66 18.9914962,69.8145 20.3114738,73.96275 C21.0877107,76.40325 23.4389209,78 26.0001275,78 C29.9480606,78 33.0080088,74.1855 31.6887811,70.03725 C30.9125443,67.59675 28.5605841,66 26.0001275,66 Z M26.0076274,66.75 C26.3901209,66.75 26.7628646,66.795 27.1221085,66.87375 L26.2206237,67.5075 C26.0908759,67.599 25.9183789,67.599 25.7886311,67.5075 L24.8856464,66.87225 C25.2448903,66.7935 25.616884,66.75 26.0001275,66.75 L26.0076274,66.75 Z M30.5345507,69.3675 C30.9027945,69.99975 31.1472903,70.71225 31.223039,71.475 L30.3470539,70.818 C30.220306,70.7235 30.1670569,70.55925 30.2135561,70.40775 L30.5345507,69.3675 Z M26.5393684,68.20125 L27.8435963,67.28325 C27.9545944,67.20525 28.1008419,67.18875 28.2238398,67.2465 C28.8380794,67.53525 29.3870701,67.941 29.8438124,68.433 C29.9353108,68.532 29.9645603,68.67525 29.924811,68.8035 L29.4575689,70.31925 C29.4215695,70.4355 29.3308211,70.52775 29.214573,70.56525 L28.392587,70.83225 C28.2785889,70.86975 28.153341,70.8495 28.0565927,70.779 L26.5341184,69.67275 C26.4373701,69.603 26.3796211,69.48975 26.3796211,69.36975 L26.3796211,68.50725 C26.3796211,68.38575 26.43962,68.271 26.5393684,68.20125 Z M26.2251237,70.3755 L27.4828524,71.289 C27.6141001,71.38425 27.6695992,71.55375 27.6193501,71.70825 L27.1386082,73.18725 C27.0883591,73.34175 26.9443615,73.446 26.7823642,73.446 L25.2276406,73.446 C25.0656433,73.446 24.9216457,73.341 24.8706466,73.18725 L24.3906547,71.709 C24.3404056,71.5545 24.3959046,71.385 24.5271524,71.28975 L25.7848811,70.37625 C25.9161289,70.28025 26.0938759,70.28025 26.2251237,70.3755 Z M24.1626586,67.28025 L25.4713864,68.20125 C25.5711347,68.27175 25.6303837,68.38575 25.6303837,68.508 L25.6303837,69.3705 C25.6303837,69.4905 25.5726347,69.60375 25.4758864,69.6735 L23.959412,70.776 C23.8611637,70.84575 23.7366658,70.866 23.6226677,70.8285 L22.7849319,70.55625 C22.6694339,70.51875 22.5786854,70.42725 22.542686,70.31025 L22.0776939,68.802 C22.0379446,68.673 22.0671941,68.52975 22.1586925,68.43075 C22.6161848,67.938 23.1666755,67.5315 23.783165,67.2435 C23.905413,67.18575 24.0516605,67.20225 24.1626586,67.28025 Z M21.4672042,69.36525 L21.7851989,70.3995 C21.8316981,70.551 21.778449,70.7145 21.6517011,70.80975 L20.7772159,71.466 C20.8544646,70.7055 21.0989605,69.99525 21.4672042,69.36525 Z M21.4132052,74.547 C21.0839607,73.956 20.8717143,73.3065 20.7907157,72.62625 C20.774966,72.49275 20.8357149,72.35925 20.9437131,72.279 L22.2126916,71.3265 C22.31019,71.253 22.4376878,71.232 22.5539358,71.2695 L23.3849218,71.5395 C23.4989198,71.577 23.5881683,71.66625 23.6256677,71.78025 L24.2076578,73.57125 C24.2444072,73.68525 24.2249075,73.8105 24.1544087,73.90725 L23.6459174,74.607 C23.5739186,74.706 23.4591705,74.763 23.3369226,74.7615 L21.7409496,74.7375 C21.6067019,74.736 21.479204,74.66475 21.4132052,74.547 Z M22.2824404,75.7065 C22.2141916,75.63825 22.1534426,75.56475 22.0896937,75.4935 L23.1876751,75.51 C23.3459224,75.51225 23.4854201,75.61425 23.5371692,75.7635 L23.8941631,76.8075 C23.3001732,76.54725 22.7534325,76.17975 22.2824404,75.7065 Z M27.2931056,76.89525 C27.2496063,77.02125 27.1446081,77.118 27.0141103,77.145 C26.6833659,77.21175 26.3428717,77.25 25.9926276,77.25 C25.6543833,77.25 25.322139,77.21325 24.9973945,77.1495 C24.8661467,77.124 24.7603985,77.02575 24.7168992,76.89975 L24.200908,75.39 C24.1619086,75.2745 24.1806583,75.147 24.2526571,75.048 L24.7596485,74.34975 C24.8301473,74.253 24.9433954,74.19525 25.0633933,74.19525 L26.9458615,74.19525 C27.0658594,74.19525 27.1791075,74.253 27.2496063,74.34975 L27.7565977,75.048 C27.8285965,75.147 27.8473462,75.2745 27.8083469,75.39 L27.2931056,76.89525 Z M28.1180916,76.79775 L28.4713356,75.76425 C28.5223348,75.61425 28.6625824,75.513 28.8208297,75.51075 L29.9053113,75.495 C29.4110697,76.0455 28.80508,76.49325 28.1180916,76.79775 Z M30.2540554,74.73825 L28.6708323,74.76225 C28.5485843,74.76375 28.4338363,74.70675 28.3618375,74.60775 L27.8548461,73.9095 C27.7843473,73.81275 27.7640976,73.6875 27.801597,73.5735 L28.3820871,71.787 C28.4195865,71.673 28.508835,71.58375 28.6228331,71.54625 L29.4455691,71.27925 C29.5618172,71.24175 29.688565,71.26275 29.7868134,71.33625 L31.0527919,72.28575 C31.1607901,72.36675 31.222289,72.50175 31.2057893,72.63525 C31.1225407,73.323 30.9050444,73.96875 30.5810499,74.5485 C30.515801,74.6655 30.3890532,74.736 30.2540554,74.73825 Z" id="football"></path>
            </g>
        </g>
    </g>
</svg>