<?xml version="1.0" encoding="UTF-8"?>
<svg width="631px" height="631px" viewBox="0 0 631 631" version="1.1" xmlns="http://www.w3.org/2000/svg" xmlns:xlink="http://www.w3.org/1999/xlink">
    <!-- Generator: Sketch 49.2 (51160) - http://www.bohemiancoding.com/sketch -->
    <title>logo_back</title>
    <desc>Created with Sketch.</desc>
    <defs></defs>
    <g id="Home" stroke="none" stroke-width="1" fill="none" fill-rule="evenodd" fill-opacity="0.03">
        <g id="LMbet_Home-1" transform="translate(-110.000000, -197.000000)" fill="#FFFFFF">
            <path d="M589.258923,418.283652 C585.34373,409.490441 578.764413,403.268571 569.705017,399.789921 C560.83119,396.383521 551.869141,396.642861 543.067564,400.555772 C534.273592,404.475527 528.052482,411.053324 524.577635,420.107396 L442.92291,632.825234 C439.445781,641.88463 439.667094,650.936421 443.583047,659.730393 C447.498239,668.525886 453.986294,674.712772 462.863924,678.119171 C467.126677,679.756586 471.386387,680.574152 475.617198,680.574152 C480.384181,680.574152 485.113897,679.536033 489.768321,677.462076 C498.562293,673.550687 504.785684,666.970608 508.263574,657.905889 L508.263574,657.906649 L589.918299,445.189571 C593.394668,436.130175 593.174115,427.077624 589.258923,418.283652 M425.5,739.048019 C408.323501,739.048019 391.59191,737.116281 375.499923,733.47716 L438.672325,568.909037 C442.149454,559.848881 441.92814,550.796329 438.012948,542.002358 C434.096995,533.209146 427.517678,526.986515 418.459042,523.509387 C409.584455,520.103747 400.623927,520.359284 391.82159,524.275998 C383.026857,528.194232 376.806508,534.772029 373.3309,543.826861 L310.465751,707.59491 C301.814758,702.474283 293.522734,696.807598 285.658126,690.619191 L367.146296,478.340176 C370.622664,469.279259 370.40059,460.226708 366.485398,451.435018 C362.570206,442.640285 355.991649,436.418415 346.931492,432.941286 C338.057665,429.534887 329.097138,429.791945 320.294039,433.707137 C311.500067,437.626132 305.278958,444.204689 301.804111,453.258761 L233.163521,632.073073 C211.49459,597.344375 198.95122,556.362625 198.95122,512.5 C198.95122,387.581184 300.580423,285.95122 425.5,285.95122 C550.418816,285.95122 652.04878,387.581184 652.04878,512.5 C652.04878,637.419577 550.418816,739.048019 425.5,739.048019 Z M741,512.5 C741,428.22678 708.182506,348.998135 648.592185,289.407815 C589.001104,229.818255 509.772459,197 425.5,197 C341.22678,197 261.998135,229.818255 202.407815,289.407815 C142.818255,348.998135 110,428.22678 110,512.5 C110,596.77322 142.818255,676.002625 202.407815,735.591425 C261.998135,795.182506 341.22678,827.999239 425.5,827.999239 C509.772459,827.999239 589.001104,795.182506 648.592185,735.591425 C708.182506,676.002625 741,596.77322 741,512.5 Z" id="logo_back"></path>
        </g>
    </g>
</svg>