<svg xmlns="http://www.w3.org/2000/svg" width="160" height="40" viewBox="0 0 160 40">
    <g fill="#FFF" fill-rule="evenodd">
        <path d="M63.556 23.386H67.3v2.43H61v-12.6h2.556v10.17zm8.694 2.646c-2.556 0-4.086-1.602-4.086-4.302v-4.428c0-2.7 1.53-4.302 4.086-4.302s4.086 1.602 4.086 4.302v4.428c0 2.7-1.53 4.302-4.086 4.302zm0-2.484c.954 0 1.44-.63 1.44-1.818v-4.428c0-1.188-.486-1.818-1.44-1.818s-1.44.63-1.44 1.818v4.428c0 1.188.486 1.818 1.44 1.818zm9.684 2.484c-2.556 0-4.086-1.602-4.086-4.302v-4.428c0-2.7 1.53-4.302 4.086-4.302s4.086 1.602 4.086 4.302v4.428c0 2.7-1.53 4.302-4.086 4.302zm0-2.484c.954 0 1.44-.63 1.44-1.818v-4.428c0-1.188-.486-1.818-1.44-1.818s-1.44.63-1.44 1.818v4.428c0 1.188.486 1.818 1.44 1.818zM93.4 25.816l-2.286-4.77-.702 1.134v3.636h-2.52v-12.6h2.52v4.824l.648-1.404 1.764-3.42h2.916l-3.204 5.508 3.744 7.092H93.4zm15.858-12.6h2.574v12.6h-2.502V22.72c.072-1.53.126-3.06.198-4.59l-.09-.036-1.134 3.312-.63 1.71h-2.52l-.63-1.71-1.134-3.312-.09.036c.054 1.53.126 3.06.18 4.59v3.096h-2.484v-12.6h2.574l1.98 4.77c.252.63.684 1.728.828 2.196h.072c.144-.468.576-1.566.828-2.196l1.98-4.77zm6.66 12.6v-3.744l-2.97-8.856h2.646l1.026 3.492c.126.414.414 1.404.54 2.016h.072c.144-.612.432-1.602.576-2.07l.99-3.438h2.646l-2.97 8.856v3.744h-2.556zm16.434-6.444c.936.54 1.494 1.548 1.494 2.682 0 2.25-1.548 3.762-3.708 3.762h-3.978v-12.6h3.924c1.944 0 3.33 1.44 3.33 3.582 0 .954-.396 1.962-1.062 2.574zm-2.718-3.744h-.918v2.628h1.008c.72 0 1.098-.468 1.098-1.35 0-.846-.36-1.278-1.188-1.278zm.054 7.776c1.008 0 1.53-.468 1.53-1.368 0-.918-.522-1.386-1.476-1.386h-1.026v2.754h.972zm8.37-.018h4.122v2.43h-6.678v-12.6H142v2.43h-3.942v2.61h3.582v2.34h-3.582v2.79zm12.582-10.17v2.43h-2.466v10.17h-2.628v-10.17h-2.466v-2.43h7.56zm5.426 12.536c-2.233 0-3.653-1.333-3.67-3.67h2.181c.018 1.09.59 1.592 1.507 1.592.97 0 1.437-.57 1.437-1.35 0-2.199-4.883-2.372-4.883-6.025 0-1.8 1.282-3.151 3.428-3.151 2.165 0 3.48 1.333 3.498 3.497h-2.182c-.017-.97-.502-1.437-1.316-1.437-.796 0-1.263.45-1.263 1.143 0 2.112 4.934 2.181 4.934 5.99 0 1.905-1.333 3.411-3.67 3.411zM30.38 14.027a2.157 2.157 0 0 0-1.239-1.172 2.137 2.137 0 0 0-1.688.049 2.158 2.158 0 0 0-1.172 1.24l-5.177 13.484a2.157 2.157 0 0 0 .042 1.705c.249.558.66.95 1.223 1.166.27.104.54.155.808.155.302 0 .602-.065.897-.197a2.156 2.156 0 0 0 1.173-1.24l5.176-13.484a2.157 2.157 0 0 0-.042-1.706M20 34.361c-1.089 0-2.15-.122-3.17-.353l4.005-10.432a2.157 2.157 0 0 0-.042-1.706 2.157 2.157 0 0 0-1.24-1.172 2.137 2.137 0 0 0-1.688.048 2.157 2.157 0 0 0-1.172 1.24l-3.985 10.381a14.422 14.422 0 0 1-1.573-1.076l5.166-13.456a2.157 2.157 0 0 0-.042-1.706 2.157 2.157 0 0 0-1.24-1.172 2.137 2.137 0 0 0-1.688.048 2.158 2.158 0 0 0-1.172 1.24L7.808 27.58A14.274 14.274 0 0 1 5.638 20c0-7.919 6.443-14.361 14.362-14.361 7.919 0 14.361 6.442 14.361 14.361 0 7.919-6.442 14.361-14.361 14.361zM40 20c0-5.342-2.08-10.365-5.858-14.142A19.87 19.87 0 0 0 20 0 19.87 19.87 0 0 0 5.858 5.858 19.87 19.87 0 0 0 0 20c0 5.342 2.08 10.365 5.858 14.142A19.869 19.869 0 0 0 20 40c5.342 0 10.365-2.08 14.142-5.858A19.869 19.869 0 0 0 40 20z"/>
    </g>
</svg>
