<?xml version="1.0" encoding="UTF-8"?>
<svg width="17px" height="13px" viewBox="0 0 17 13" version="1.1" xmlns="http://www.w3.org/2000/svg" xmlns:xlink="http://www.w3.org/1999/xlink">
    <!-- Generator: Sketch 49 (51002) - http://www.bohemiancoding.com/sketch -->
    <title>mail</title>
    <desc>Created with Sketch.</desc>
    <defs></defs>
    <g id="Home" stroke="none" stroke-width="1" fill="none" fill-rule="evenodd">
        <g id="LMbet_Home-1" transform="translate(-207.000000, -889.000000)" fill="#FFFFFF">
            <g id="content" transform="translate(50.000000, 25.000000)">
                <g id="sn" transform="translate(0.000000, 845.000000)">
                    <g id="insta" transform="translate(140.000000, 0.000000)">
                        <path d="M18.6316507,22.8110273 C18.2396027,22.5651858 17.8695616,22.2270865 17.5217603,21.796837 C17.1739589,21.3665876 17,20.966947 17,20.598131 C17,20.1415837 17.131226,19.7610199 17.3936781,19.4565473 C17.6561301,19.1521824 18.0308288,19 18.517774,19 L32.4821096,19 C32.8930205,19 33.2488562,19.1375246 33.5492671,19.4126817 C33.8496781,19.6878387 34,20.0186091 34,20.404993 C34,20.867468 33.845137,21.3094653 33.5350616,21.7307692 C33.2251027,22.1522886 32.8394589,22.5123746 32.3777808,22.8108117 C29.9998767,24.3387793 28.5198288,25.2900272 27.9381027,25.6646633 C27.8748767,25.7057267 27.7403904,25.794859 27.5348767,25.9324914 C27.329363,26.0701238 27.1586644,26.1814584 27.0226644,26.2662796 C26.8866644,26.3511008 26.7222534,26.446161 26.5294315,26.5515678 C26.3366096,26.656759 26.1546164,26.7359758 25.9839178,26.7884636 C25.8131027,26.8412748 25.6549795,26.8674649 25.5095479,26.8674649 L25.5,26.8674649 L25.4904521,26.8674649 C25.3450205,26.8674649 25.1868973,26.8412748 25.0160822,26.7884636 C24.8453836,26.7359758 24.6635068,26.6568668 24.4705685,26.5515678 C24.2776301,26.4462687 24.1132192,26.3511008 23.9772192,26.2662796 C23.8413356,26.1814584 23.6705205,26.0701238 23.4650068,25.9324914 C23.2594932,25.7949668 23.1251233,25.7057267 23.0618973,25.6646633 C22.4863425,25.290135 21.6578836,24.7559876 20.5764041,24.0623289 C19.4949247,23.3686702 18.8467123,22.9514619 18.6316507,22.8110273 Z M33.0512603,23.7505274 C33.4118699,23.5222538 33.728,23.2674668 34,22.9865975 L34,29.9585356 C34,30.3450272 33.8515411,30.6755821 33.5541575,30.9508469 C33.2568904,31.2261117 32.8995411,31.3636364 32.482226,31.3636364 L18.5178904,31.3636364 C18.1004589,31.3636364 17.7431096,31.2261117 17.4458425,30.9508469 C17.1485753,30.6756899 17,30.3450272 17,29.9585356 L17,22.9865975 C17.2782877,23.2733945 17.5976781,23.5281815 17.9581712,23.7505274 C20.2475822,25.1905482 21.8191507,26.2004273 22.6729932,26.7799492 C23.0334863,27.0257906 23.3259795,27.2176353 23.5504726,27.3550522 C23.7749658,27.4926846 24.073863,27.6331192 24.4469315,27.7765716 C24.82,27.920024 25.1679178,27.9916963 25.4904521,27.9916963 L25.5,27.9916963 L25.5096644,27.9916963 C25.8321986,27.9916963 26.18,27.920024 26.5530685,27.7765716 C26.9262534,27.6331192 27.2250342,27.4926846 27.4495274,27.3550522 C27.674137,27.2176353 27.9666301,27.0257906 28.3271233,26.7799492 C29.4020822,26.0598849 30.9770274,25.0500058 33.0512603,23.7505274 Z" id="mail"></path>
                    </g>
                </g>
            </g>
        </g>
    </g>
</svg>