<?xml version="1.0" encoding="UTF-8"?>
<svg width="24px" height="24px" viewBox="0 0 24 24" version="1.1" xmlns="http://www.w3.org/2000/svg" xmlns:xlink="http://www.w3.org/1999/xlink">
    <!-- Generator: Sketch 49 (51002) - http://www.bohemiancoding.com/sketch -->
    <title>basketball-outline</title>
    <desc>Created with Sketch.</desc>
    <defs></defs>
    <g id="Account" stroke="none" stroke-width="1" fill="none" fill-rule="evenodd">
        <g id="LMbet_Account-Sports-Popup" transform="translate(-408.000000, -372.000000)" fill="#32303A" fill-rule="nonzero">
            <g id="popup" transform="translate(330.000000, 206.000000)">
                <g id="list" transform="translate(60.000000, 148.000000)">
                    <g id="Баскетбол">
                        <g id="basketball-outline" transform="translate(18.000000, 18.000000)">
                            <path d="M23.775,9.66 C23.67,9.165 23.55,8.685 23.385,8.22 C22.5,5.535 20.685,3.255 18.315,1.8 C17.85,1.5 17.355,1.245 16.845,1.02 C15.36,0.36 13.725,0 12,0 C10.41,0 8.91,0.315 7.515,0.885 L7.5,0.885 C6.825,1.155 6.165,1.485 5.565,1.875 C3.555,3.15 1.95,5.01 0.99,7.215 C0.72,7.83 0.51,8.475 0.345,9.15 C0.12,10.065 0,11.01 0,12 C0,12.81 0.075,13.59 0.225,14.355 C0.33,14.85 0.465,15.33 0.615,15.795 L0.615,15.81 C1.5,18.465 3.285,20.7 5.625,22.17 C6.135,22.485 6.675,22.785 7.23,23.025 L7.245,23.025 C8.7,23.655 10.32,24 12,24 C13.77,24 15.465,23.61 16.98,22.92 C17.52,22.68 18.03,22.395 18.525,22.065 C20.01,21.105 21.27,19.83 22.2,18.33 C22.575,17.715 22.905,17.055 23.175,16.365 C23.715,15.015 24,13.545 24,12 C24,11.205 23.925,10.41 23.775,9.66 Z M18.195,3.54 C19.92,4.785 21.24,6.57 21.945,8.64 C21.435,8.88 20.97,9.18 20.55,9.54 C20.16,9.87 19.8,10.275 19.5,10.725 C18.81,10.05 18.045,9.42 17.22,8.88 C17.685,7.17 18.015,5.37 18.195,3.54 Z M12,1.5 C13.71,1.5 15.33,1.905 16.77,2.655 C16.635,4.515 16.335,6.345 15.885,8.07 C14.925,7.545 13.89,7.11 12.825,6.765 C12.81,4.77 11.61,3.03 9.525,1.8 C10.32,1.605 11.145,1.5 12,1.5 Z M7.53,2.505 C9.69,3.39 11.085,4.785 11.28,6.375 C10.065,6.105 8.82,5.97 7.53,5.97 C5.97,5.97 4.47,6.165 3.03,6.54 C4.095,4.8 5.67,3.375 7.53,2.505 Z M1.5,12 C1.5,10.725 1.725,9.51 2.145,8.385 C3.81,7.8 5.625,7.47 7.53,7.47 C8.775,7.47 9.99,7.605 11.145,7.875 C10.455,9.96 7.665,12.375 1.695,13.98 C1.56,13.335 1.5,12.675 1.5,12 Z M7.155,21.315 C4.8,20.085 2.97,17.985 2.085,15.45 C8.64,13.665 11.76,10.86 12.585,8.28 C13.59,8.595 14.55,9.03 15.45,9.54 C14.385,12.93 12.705,15.99 10.5,18.435 C9.45,19.59 8.325,20.565 7.155,21.315 Z M17.07,21.195 C15.57,22.035 13.83,22.5 12,22.5 C10.875,22.5 9.795,22.32 8.79,22.005 C9.78,21.285 10.725,20.43 11.61,19.44 C13.875,16.92 15.615,13.83 16.755,10.38 C17.475,10.89 18.15,11.46 18.75,12.075 C17.775,14.235 17.31,17.265 17.07,21.195 Z M18.66,20.115 C18.855,17.325 19.215,15.06 19.845,13.365 C20.55,14.28 21.12,15.27 21.555,16.335 C20.895,17.805 19.89,19.095 18.66,20.115 Z M22.245,14.295 C21.765,13.425 21.195,12.615 20.565,11.85 C20.835,11.385 21.165,10.98 21.525,10.665 C21.765,10.455 22.035,10.275 22.32,10.125 C22.44,10.725 22.5,11.355 22.5,12 C22.5,12.795 22.41,13.56 22.245,14.295 Z" id="Shape"></path>
                        </g>
                    </g>
                </g>
            </g>
        </g>
    </g>
</svg>