<?xml version="1.0" encoding="UTF-8"?>
<svg width="18px" height="24px" viewBox="0 0 18 24" version="1.1" xmlns="http://www.w3.org/2000/svg" xmlns:xlink="http://www.w3.org/1999/xlink">
    <!-- Generator: Sketch 49 (51002) - http://www.bohemiancoding.com/sketch -->
    <title>stats</title>
    <desc>Created with Sketch.</desc>
    <defs></defs>
    <g id="Account" stroke="none" stroke-width="1" fill="none" fill-rule="evenodd">
        <g id="LMbet_Account" transform="translate(-541.000000, -248.000000)" fill="#FFFFFF" fill-rule="nonzero">
            <g id="график-доходности" transform="translate(510.000000, 220.000000)">
                <path d="M48.9665507,32.6185302 C48.8983476,32.4086495 48.7328568,32.2445459 48.5223288,32.1782386 L45.192537,31.1289741 L43.165679,28.2864069 C43.0375497,28.1067205 42.8303971,28 42.6096502,28 C42.3889033,28 42.1817971,28.1067205 42.0536214,28.2864069 L40.026671,31.1290203 L36.6968792,32.1782848 C36.4863512,32.2446383 36.3208604,32.4086957 36.2526573,32.6185764 C36.1844542,32.8285033 36.2218619,33.0584981 36.353228,33.2359186 L38.4303019,36.0420492 L38.3992753,39.5331703 C38.3973332,39.7538709 38.502158,39.9619482 38.6807808,40.091696 C38.8593573,40.22149 39.0896758,40.2568631 39.2989553,40.1868104 L40.1055554,39.9167723 L40.1055554,40.9756546 L37.1462337,40.9756546 C36.7690589,40.9756546 36.463324,41.2814358 36.463324,41.6585644 L36.463324,43.7073398 L33.5040023,43.7073398 C33.1268275,43.7073398 32.8210926,44.0131209 32.8210926,44.3902495 L32.8210926,50.3087542 L31.6829097,50.3087542 C31.3057349,50.3087542 31,50.6145353 31,50.9916639 C31,51.3688387 31.3057812,51.6745736 31.6829097,51.6745736 L46.2518817,51.6745736 C46.2524828,51.6744811 46.2512806,51.6744811 46.2518817,51.6744811 C46.6290102,51.6744811 46.9347914,51.3687 46.9347914,50.9915714 C46.9347914,50.6143966 46.6290102,50.3086617 46.2518817,50.3086617 L45.1136988,50.3086617 L45.1136988,39.9167261 L45.9202527,40.1867642 C45.9910452,40.210485 46.0641959,40.2220911 46.137023,40.2220911 C46.2794403,40.2220911 46.4202856,40.1775163 46.5384272,40.091696 C46.71705,39.961902 46.821921,39.7538247 46.8199327,39.533124 L46.7889523,36.042003 L48.8660262,33.2358724 C48.9972999,33.0584981 49.0348,32.8285033 48.9665507,32.6185302 Z M36.4633703,50.3087542 L34.1869583,50.3087542 L34.1869583,45.073113 L36.4633703,45.073113 L36.4633703,50.3087542 Z M40.1056017,50.3087542 L37.8291897,50.3087542 L37.8291897,42.3414741 L40.1056017,42.3414741 L40.1056017,50.3087542 Z M43.7478331,50.3087542 L41.4714211,50.3087542 L41.4714211,39.4595109 L42.609604,39.0784982 L43.7477869,39.4595109 L43.7477869,50.3087542 L43.7478331,50.3087542 Z M45.5550539,35.4131933 C45.4668291,35.5324448 45.4197574,35.6772203 45.4210983,35.8255563 L45.4456052,38.5875283 L42.8264206,37.7106443 C42.7912786,37.6988994 42.7553506,37.6900677 42.7190989,37.6841953 C42.6284697,37.6694912 42.5355747,37.6731903 42.4460552,37.6952003 C42.4281606,37.699593 42.4104047,37.7047718 42.3927874,37.7106443 L39.7735565,38.5875283 L39.7980634,35.8255563 C39.7994044,35.6772203 39.7523327,35.5324448 39.6641079,35.4131933 L38.0208983,33.1931472 L40.6552957,32.3630112 C40.796742,32.3184364 40.91997,32.2289632 41.0060216,32.1081396 L42.6096502,29.8592401 L44.2132789,32.1081396 C44.2994229,32.228917 44.4225585,32.3183902 44.5640048,32.3630112 L47.198356,33.1931472 L45.5550539,35.4131933 Z" id="stats"></path>
            </g>
        </g>
    </g>
</svg>