<?xml version="1.0" encoding="UTF-8"?>
<svg width="24px" height="24px" viewBox="0 0 24 24" version="1.1" xmlns="http://www.w3.org/2000/svg" xmlns:xlink="http://www.w3.org/1999/xlink">
    <!-- Generator: Sketch 49 (51002) - http://www.bohemiancoding.com/sketch -->
    <title>top_dollar</title>
    <desc>Created with Sketch.</desc>
    <defs></defs>
    <g id="Bets" stroke="none" stroke-width="1" fill="none" fill-rule="evenodd">
        <g id="LMbet_Bets" transform="translate(-97.000000, -844.000000)" fill="#FFFFFF" fill-rule="nonzero">
            <g id="l2" transform="translate(70.000000, 816.000000)">
                <g id="top_dollar" transform="translate(27.000000, 28.000000)">
                    <path d="M12.6560723,10.8028158 L12.1304621,10.8028158 L11.7894683,10.8028158 L11.263858,10.8028158 C10.7424229,10.8028158 10.3181543,10.3785472 10.3181543,9.85711205 L10.3181543,9.04736559 C10.3181543,8.52593046 10.742347,8.10166188 11.263858,8.10166188 L12.8063768,8.10166188 C13.2449927,8.10166188 13.601776,8.45844527 13.601776,8.8970611 C13.601776,9.31624362 13.9416312,9.65617468 14.3608896,9.65617468 C14.7801481,9.65617468 15.1200032,9.31624362 15.1200032,8.8970611 C15.1200032,7.6212948 14.0821431,6.58343471 12.8063768,6.58343471 L12.7191547,6.58343471 L12.7191547,5.659138 C12.7191547,5.23995548 12.3792995,4.90002441 11.9600411,4.90002441 C11.5407827,4.90002441 11.2009275,5.23995548 11.2009275,5.659138 L11.2009275,6.58502884 C9.87141597,6.61865758 8.80000305,7.70988336 8.80000305,9.04736559 L8.80000305,9.85711205 C8.80000305,11.2156976 9.90534835,12.3210429 11.2639339,12.3210429 L11.7895442,12.3210429 L12.130538,12.3210429 L12.6561483,12.3210429 C13.1775834,12.3210429 13.601852,12.7452356 13.601852,13.2666707 L13.601852,14.0764931 C13.601852,14.5980041 13.1775834,15.0221209 12.6561483,15.0221209 L11.1136294,15.0221209 C10.6750136,15.0221209 10.3182302,14.6653375 10.3182302,14.2267217 C10.3182302,13.8075392 9.97837507,13.4676081 9.55911664,13.4676081 C9.1398582,13.4676081 8.80000305,13.8075392 8.80000305,14.2267217 C8.80000305,15.502488 9.83786315,16.5403481 11.1136294,16.5403481 L11.2009275,16.5403481 L11.2009275,17.4647966 C11.2009275,17.8839791 11.5407827,18.2239102 11.9600411,18.2239102 C12.3792995,18.2239102 12.7191547,17.8839791 12.7191547,17.4647966 L12.7191547,16.5387539 C14.0486662,16.5051252 15.1200032,15.4138994 15.1200032,14.0764931 L15.1200032,13.2666707 C15.1200032,11.9081611 14.0146579,10.8028158 12.6560723,10.8028158 Z" id="Shape"></path>
                    <path d="M1.18259603,11.9299908 C1.18259603,17.8937046 6.03625189,22.7473113 12.0000041,22.7473113 C17.9637371,22.7473113 22.8173245,17.8937238 22.8173245,11.9299908 C22.8173245,5.96623864 17.9637179,1.11258278 12.0000041,1.11258278 C6.03627109,1.11258278 1.18259603,5.96625785 1.18259603,11.9299908 Z M0.070013245,11.9299908 C0.070013245,5.35179535 5.42180859,0 12.0000041,0 C18.5781996,0 23.9299073,5.35179535 23.9299073,11.9299908 C23.9299073,18.5081863 18.5781996,23.859894 12.0000041,23.859894 C5.42180859,23.859894 0.070013245,18.5081863 0.070013245,11.9299908 Z" id="Path"></path>
                </g>
            </g>
        </g>
    </g>
</svg>