<?xml version="1.0" encoding="UTF-8"?>
<svg width="24px" height="24px" viewBox="0 0 24 24" version="1.1" xmlns="http://www.w3.org/2000/svg" xmlns:xlink="http://www.w3.org/1999/xlink">
    <!-- Generator: Sketch 49 (51002) - http://www.bohemiancoding.com/sketch -->
    <title>top_star</title>
    <desc>Created with Sketch.</desc>
    <defs></defs>
    <g id="Bets" stroke="none" stroke-width="1" fill="none" fill-rule="evenodd">
        <g id="LMbet_Bets" transform="translate(-537.000000, -844.000000)" fill="#FFFFFF" fill-rule="nonzero">
            <g id="r1" transform="translate(510.000000, 816.000000)">
                <g id="top_star" transform="translate(27.000000, 28.000000)">
                    <path d="M1.18259603,11.9299908 C1.18259603,17.8937046 6.03625189,22.7473113 12.0000041,22.7473113 C17.9637371,22.7473113 22.8173245,17.8937238 22.8173245,11.9299908 C22.8173245,5.96623864 17.9637179,1.11258278 12.0000041,1.11258278 C6.03627109,1.11258278 1.18259603,5.96625785 1.18259603,11.9299908 Z M0.070013245,11.9299908 C0.070013245,5.35179535 5.42180859,0 12.0000041,0 C18.5781996,0 23.9299073,5.35179535 23.9299073,11.9299908 C23.9299073,18.5081863 18.5781996,23.859894 12.0000041,23.859894 C5.42180859,23.859894 0.070013245,18.5081863 0.070013245,11.9299908 Z" id="Path"></path>
                    <path d="M18.8868079,9.6922649 C18.8182252,9.48103311 18.6376689,9.32543046 18.4185695,9.28863576 L14.407947,8.61560265 L12.5285563,5.0093245 C12.4258808,4.81231788 12.2221987,4.68874172 12,4.68874172 C11.7778808,4.68874172 11.5741192,4.81231788 11.4714437,5.0093245 L9.59197351,8.61560265 L5.58143046,9.28863576 C5.36233113,9.32535099 5.1818543,9.48095364 5.11319205,9.6922649 C5.0445298,9.90357616 5.09904636,10.1354702 5.25472848,10.2940132 L8.1037351,13.1958675 L7.5045298,17.2181722 C7.47178808,17.4379073 7.56397351,17.6575629 7.7437351,17.7882119 C7.92333775,17.918702 8.16087417,17.9384901 8.35970861,17.8395497 L12,16.0266755 L15.6402119,17.8395497 C15.7243709,17.8814305 15.8152848,17.9020927 15.9058808,17.9020927 C16.0296159,17.9020927 16.1525563,17.8636291 16.2562649,17.7882914 C16.4360265,17.6576424 16.5282119,17.4379868 16.4954702,17.2182517 L15.8963444,13.195947 L18.745351,10.2940132 C18.9009536,10.1354702 18.9554702,9.90357616 18.8868079,9.6922649 Z M14.8377219,12.5725828 C14.706755,12.7060132 14.6459603,12.8930861 14.6735364,13.0779338 L15.1479735,16.2626225 L12.2657483,14.8273113 C12.1819868,14.7856689 12.0910728,14.7647682 12,14.7647682 C11.9090066,14.7647682 11.8179338,14.7855894 11.7343311,14.8273113 L8.85210596,16.2626225 L9.32654305,13.0779338 C9.35411921,12.8930861 9.2933245,12.7059338 9.16235762,12.5725828 L6.90659603,10.2749404 L10.0819868,9.74201325 C10.2663576,9.71109934 10.4255364,9.5954702 10.5119205,9.42969536 L12,6.5744106 L13.4880795,9.42977483 C13.574543,9.59554967 13.7336424,9.71117881 13.9180132,9.74209272 L17.0934834,10.2750199 L14.8377219,12.5725828 Z" id="Shape"></path>
                </g>
            </g>
        </g>
    </g>
</svg>