<?xml version="1.0" encoding="UTF-8"?>
<svg width="19px" height="16px" viewBox="0 0 19 16" version="1.1" xmlns="http://www.w3.org/2000/svg" xmlns:xlink="http://www.w3.org/1999/xlink">
    <!-- Generator: Sketch 49 (51002) - http://www.bohemiancoding.com/sketch -->
    <title>tw</title>
    <desc>Created with Sketch.</desc>
    <defs></defs>
    <g id="Authorization" stroke="none" stroke-width="1" fill="none" fill-rule="evenodd">
        <g id="LMbet_Registration-2" transform="translate(-411.000000, -233.000000)" fill="#1DA1F1">
            <g id="Стань-частью-Look-My" transform="translate(280.000000, 121.000000)">
                <g id="sn-login" transform="translate(0.000000, 80.000000)">
                    <g id="sn-1" transform="translate(100.000000, 0.000000)">
                        <path d="M47.467688,34.5295392 C48.2587506,34.0303337 48.8657432,33.2387693 49.1506134,32.2958255 C48.4099509,32.7592084 47.5914969,33.0943233 46.7182603,33.2757475 C46.021424,32.489961 45.025474,32 43.9232455,32 C41.8086322,32 40.0950285,33.8084645 40.0950285,36.0387115 C40.0950285,36.3553373 40.1268024,36.663874 40.1925417,36.958544 C37.0107609,36.789831 34.1894504,35.1835909 32.2994463,32.7384082 C31.9696543,33.3369926 31.7812017,34.0303337 31.7812017,34.7698974 C31.7812017,36.1704463 32.4572206,37.4069045 33.4849445,38.1326015 C32.8571345,38.1118012 32.2665767,37.9280659 31.7494277,37.6276181 L31.7494277,37.6773075 C31.7494277,39.6348404 33.0685958,41.2676585 34.8227387,41.6374404 C34.5006163,41.732197 34.1631547,41.7795753 33.8125452,41.7795753 C33.566023,41.7795753 33.324979,41.7553084 33.0927002,41.7079301 C33.5791708,43.311859 34.9936609,44.4812942 36.6700123,44.5124946 C35.3585138,45.5964177 33.7073624,46.2412249 31.9137759,46.2412249 C31.6048013,46.2412249 31.2991137,46.2238914 31,46.1857576 C32.6949776,47.3309259 34.707695,48 36.8705171,48 C43.9155759,48 47.765706,41.8454427 47.765706,36.5078723 C47.765706,36.3322259 47.7635147,36.1577351 47.7558451,35.9855554 C48.5041772,35.4158602 49.154996,34.70403 49.6666667,33.8939766 C48.9796913,34.2152246 48.2412201,34.4324715 47.467688,34.5295392 Z" id="tw"></path>
                    </g>
                </g>
            </g>
        </g>
    </g>
</svg>