<?xml version="1.0" encoding="UTF-8"?>
<svg width="20px" height="28px" viewBox="0 0 20 28" version="1.1" xmlns="http://www.w3.org/2000/svg" xmlns:xlink="http://www.w3.org/1999/xlink">
    <!-- Generator: Sketch 49 (51002) - http://www.bohemiancoding.com/sketch -->
    <title>user</title>
    <desc>Created with Sketch.</desc>
    <defs></defs>
    <g id="Home" stroke="none" stroke-width="1" fill="none" fill-rule="evenodd">
        <g id="LMbet_Home-1" transform="translate(-1048.000000, -37.000000)" fill="#FFFFFF">
            <g id="content" transform="translate(50.000000, 25.000000)">
                <g id="header">
                    <g id="user" transform="translate(983.000000, 0.000000)">
                        <path d="M33.6856432,25.4617684 C34.3071137,25.5790175 34.8194746,26.4162627 34.8729324,26.9623712 C34.8883751,27.123232 34.8890185,27.2905271 34.87808,27.4610395 C34.8677849,27.8117158 34.787998,28.1463061 34.674752,28.468671 C34.6181291,28.6295317 34.5531413,28.7878187 34.4810757,28.9454622 C33.8210687,29.8333544 33.7123626,31.5787262 32.6928347,31.4617065 C32.3639312,32.9459524 31.6195772,34.3221904 30.6260099,35.4953122 C30.4336205,35.7224476 30.2206409,35.9579477 29.9980097,36.1947346 C29.8281408,36.3748986 29.6544112,36.5563495 29.4690997,36.7352266 C28.3630214,37.8078459 27.0060004,38.8013217 25.6380409,39.0432562 C25.5415244,39.0606291 25.304094,39.0689939 25.0660202,39.0689939 C24.9141676,39.0689939 24.7668192,39.0651332 24.651643,39.0580554 L24.651643,39.0538481 C24.5843557,39.0489701 24.4596764,39.0224211 24.4256338,39.0162316 C23.0345104,38.7704364 21.653682,37.7467188 20.5379521,36.6535094 C20.3719438,36.4913618 20.2168741,36.3279273 20.0637347,36.1651363 C19.8417469,35.9289927 19.6287673,35.6941361 19.4376648,35.4682876 C18.4425097,34.2927215 17.6968842,32.9131919 17.3686091,31.4254029 C16.1842376,31.7720109 16.1012921,29.8818664 15.4046572,28.9454622 C15.3325916,28.7878187 15.2676039,28.6295317 15.2103374,28.468671 C15.0970915,28.1463061 15.017948,27.8117158 15.0076529,27.4610395 C14.9967144,27.2905271 14.9967144,27.123232 15.0128005,26.9623712 C15.0738935,26.3382642 15.7343376,25.3339176 16.4715155,25.4585379 C16.2615524,24.3508902 16.1062135,23.4141865 16.0237102,23.0228158 C15.4465419,20.2817492 15.3094886,17.9486253 17.2012106,15.7383991 C18.8883178,13.7675336 21.3829458,12.9111112 23.908459,12.6588816 C24.1557917,12.6343752 24.4034444,12.61435 24.651643,12.5979029 L24.651643,12.5751419 C27.1771562,12.432941 29.7374153,12.6047402 32.1915064,12.0050515 C33.0891092,11.7862809 34.7749295,18.7425417 34.8412041,19.4393903 C34.8888189,19.9489971 34.9042615,20.4611776 34.8810976,20.9733581 C34.8083389,22.6085784 34.2161356,24.0279324 33.6856432,25.4617684 Z"></path>
                    </g>
                </g>
            </g>
        </g>
    </g>
</svg>