<?xml version="1.0" encoding="UTF-8"?>
<svg width="19px" height="12px" viewBox="0 0 19 12" version="1.1" xmlns="http://www.w3.org/2000/svg" xmlns:xlink="http://www.w3.org/1999/xlink">
    <!-- Generator: Sketch 49.2 (51160) - http://www.bohemiancoding.com/sketch -->
    <title>18+</title>
    <desc>Created with Sketch.</desc>
    <defs></defs>
    <g id="Home" stroke="none" stroke-width="1" fill="none" fill-rule="evenodd">
        <g id="LMbet_Home-5" transform="translate(-188.000000, -621.000000)" fill="#FFFFFF">
            <g id="content" transform="translate(50.000000, -169.000000)">
                <g id="txt" transform="translate(107.000000, 734.000000)">
                    <path d="M33.208,56.192 L34.472,56.192 L34.472,67.376 L32.6,67.376 L32.6,58.736 L31,59.744 L31,57.664 L33.208,56.192 Z M41.208,61.52 C41.928,62.016 42.36,62.896 42.36,63.888 L42.36,64.336 C42.36,66.368 41.128,67.584 39.256,67.584 C37.368,67.584 36.152,66.368 36.152,64.336 L36.152,63.888 C36.152,62.896 36.584,62.016 37.288,61.536 C36.696,60.992 36.344,60.176 36.344,59.328 L36.344,59.04 C36.344,57.2 37.48,56 39.256,56 C41.016,56 42.168,57.2 42.168,59.04 L42.168,59.328 C42.168,60.192 41.8,60.976 41.208,61.52 Z M38.184,59.104 L38.184,59.392 C38.184,60.288 38.568,60.736 39.256,60.736 C39.928,60.736 40.312,60.288 40.312,59.392 L40.312,59.104 C40.312,58.224 39.928,57.824 39.256,57.824 C38.568,57.824 38.184,58.224 38.184,59.104 Z M40.472,64.336 L40.472,63.904 C40.472,62.96 40.04,62.496 39.256,62.496 C38.456,62.496 38.024,62.96 38.024,63.904 L38.024,64.336 C38.024,65.28 38.456,65.728 39.256,65.728 C40.04,65.728 40.472,65.28 40.472,64.336 Z M49.848,61.568 L49.848,63.296 L47.608,63.296 L47.608,65.6 L45.864,65.6 L45.864,63.296 L43.624,63.296 L43.624,61.568 L45.864,61.568 L45.864,59.264 L47.608,59.264 L47.608,61.568 L49.848,61.568 Z" id="18+"></path>
                </g>
            </g>
        </g>
    </g>
</svg>