<?xml version="1.0" encoding="UTF-8"?>
<svg width="120px" height="198px" viewBox="0 0 120 198" version="1.1" xmlns="http://www.w3.org/2000/svg" xmlns:xlink="http://www.w3.org/1999/xlink">
    <!-- Generator: Sketch 50.2 (55047) - http://www.bohemiancoding.com/sketch -->
    <title>betcoin-logo</title>
    <desc>Created with Sketch.</desc>
    <defs></defs>
    <g id="Line" stroke="none" stroke-width="1" fill="none" fill-rule="evenodd">
        <g id="LMbet_Logo" transform="translate(-100.000000, -62.000000)" fill="#FFFFFF">
            <path d="M167,88 L170.456853,88 C183.451842,88 193.874749,90.9990363 201.725888,96.9971989 C209.577027,102.995361 213.502538,112.06063 213.502538,124.193277 C213.502538,131.554659 211.708986,137.859451 208.121827,143.107843 C204.534669,148.356235 199.424737,152.41175 192.791878,155.27451 L192.791878,155.683473 C201.725933,157.59198 208.494055,161.851974 213.096447,168.463585 C217.698839,175.075196 220,183.356626 220,193.308123 C220,199.033642 218.984782,204.384195 216.954315,209.359944 C214.923848,214.335692 211.74283,218.629767 207.411168,222.242297 C203.079505,225.854827 197.529645,228.717543 190.761421,230.830532 C184.090253,232.913221 176.169857,233.969483 167,233.999348 L167,260 L141,260 L141,234 L100,234 L100,88 L141,88 L141,62 L167,62 L167,88 Z M125.380711,149.140056 L166.80203,149.140056 C172.893431,149.140056 177.969523,147.401978 182.030457,143.92577 C186.091391,140.449562 188.121827,135.439809 188.121827,128.896359 C188.121827,121.534977 186.294435,116.354824 182.639594,113.355742 C178.984753,110.356661 173.705618,108.857143 166.80203,108.857143 L125.380711,108.857143 L125.380711,149.140056 Z M125.380711,213.142857 L170.253807,213.142857 C177.969582,213.142857 183.95937,211.13214 188.22335,207.110644 C192.487331,203.089149 194.619289,197.397796 194.619289,190.036415 C194.619289,182.811355 192.487331,177.256322 188.22335,173.371148 C183.95937,169.485975 177.969582,167.543417 170.253807,167.543417 L125.380711,167.543417 L125.380711,213.142857 Z" id="betcoin-logo"></path>
        </g>
    </g>
</svg>