<?xml version="1.0" encoding="UTF-8"?>
<svg width="14px" height="16px" viewBox="0 0 14 16" version="1.1" xmlns="http://www.w3.org/2000/svg" xmlns:xlink="http://www.w3.org/1999/xlink">
    <!-- Generator: Sketch 49 (51002) - http://www.bohemiancoding.com/sketch -->
    <title>calendar</title>
    <desc>Created with Sketch.</desc>
    <defs>
        <path d="M334.888889,7 L327.111111,7 L327.111111,8.55555556 L334.888889,8.55555556 L334.888889,7 L334.888889,7 Z M336.444444,1.55555556 L335.666667,1.55555556 L335.666667,0 L334.111111,0 L334.111111,1.55555556 L327.888889,1.55555556 L327.888889,0 L326.333333,0 L326.333333,1.55555556 L325.555556,1.55555556 C324.692222,1.55555556 324.007778,2.25555556 324.007778,3.11111111 L324,14 C324,14.8555556 324.692222,15.5555556 325.555556,15.5555556 L336.444444,15.5555556 C337.3,15.5555556 338,14.8555556 338,14 L338,3.11111111 C338,2.25555556 337.3,1.55555556 336.444444,1.55555556 L336.444444,1.55555556 Z M336.444444,14 L325.555556,14 L325.555556,5.44444444 L336.444444,5.44444444 L336.444444,14 L336.444444,14 Z M332.555556,10.1111111 L327.111111,10.1111111 L327.111111,11.6666667 L332.555556,11.6666667 L332.555556,10.1111111 L332.555556,10.1111111 Z" id="path-1"></path>
    </defs>
    <g id="New-Bet" stroke="none" stroke-width="1" fill="none" fill-rule="evenodd">
        <g id="LMbet_New_Bet-Ordinar-Playlist" transform="translate(-1051.000000, -547.000000)">
            <g id="Прогноз" transform="translate(727.000000, 547.000000)">
                <mask id="mask-2" fill="white">
                    <use xlink:href="#path-1"></use>
                </mask>
                <use id="calendar" fill="#32303A" xlink:href="#path-1"></use>
            </g>
        </g>
    </g>
</svg>