<?xml version="1.0" encoding="UTF-8"?>
<svg width="21px" height="30px" viewBox="0 0 21 30" version="1.1" xmlns="http://www.w3.org/2000/svg" xmlns:xlink="http://www.w3.org/1999/xlink">
    <!-- Generator: Sketch 49 (51002) - http://www.bohemiancoding.com/sketch -->
    <title>Shape</title>
    <desc>Created with Sketch.</desc>
    <defs></defs>
    <g id="Bets" stroke="none" stroke-width="1" fill="none" fill-rule="evenodd">
        <g id="LMbet_Bets" transform="translate(-96.000000, -166.000000)" fill="#FFFFFF" fill-rule="nonzero">
            <g id="l1" transform="translate(70.000000, 141.000000)">
                <g id="trophy" transform="translate(38.070604, 40.493823) rotate(-10.000000) translate(-38.070604, -40.493823) translate(28.070604, 25.993823)">
                    <path d="M13.3148901,12.8527473 C13.3781868,12.8762088 13.445,12.8937912 13.5164835,12.8937912 C16.208956,12.8937912 19.9633516,9.54961538 19.9633516,4.10258242 C19.9633516,3.77906593 19.7007692,3.51648352 19.3772527,3.51648352 L16.2932967,3.51648352 C16.3671429,2.77450549 16.414011,1.99269231 16.4292857,1.17214286 L17.032967,1.17214286 C17.3564835,1.17214286 17.6190659,0.90956044 17.6190659,0.586043956 C17.6190659,0.262527473 17.3564835,0 17.032967,0 L2.96703297,0 C2.64351648,0 2.38093407,0.262582418 2.38093407,0.586098901 C2.38093407,0.909615385 2.64351648,1.17214286 2.96703297,1.17214286 L3.57071429,1.17214286 C3.58593407,1.99263736 3.63285714,2.77450549 3.7067033,3.51648352 L0.622692308,3.51648352 C0.299175824,3.51648352 0.0365934066,3.77906593 0.0365934066,4.10258242 C0.0365934066,9.54961538 3.79104396,12.8937912 6.48346154,12.8937912 C6.55494505,12.8937912 6.62175824,12.8762088 6.68505495,12.8527473 C7.36021978,13.9287912 7.94983516,14.5969231 8.2417033,14.8958242 L8.2417033,16.5180769 C7.56065934,16.7607143 7.06956044,17.4053846 7.06956044,18.1684615 L7.06956044,18.7545604 L4.13917582,18.7545604 C3.81565934,18.7545604 3.55307692,19.0171429 3.55307692,19.3406593 C3.55307692,19.6641758 3.81565934,19.9267582 4.13917582,19.9267582 L4.72527473,19.9267582 L4.72527473,26.9597253 L4.13917582,26.9597253 C3.81565934,26.9597253 3.55307692,27.2223077 3.55307692,27.5458242 C3.55307692,27.8693407 3.81565934,28.1319231 4.13917582,28.1319231 L15.8607692,28.1319231 C16.1842857,28.1319231 16.4468681,27.8693407 16.4468681,27.5458242 C16.4468681,27.2223077 16.1842857,26.9597253 15.8607692,26.9597253 L15.2747253,26.9597253 L15.2747253,19.9267582 L15.8608242,19.9267582 C16.1843407,19.9267582 16.4469231,19.6641758 16.4469231,19.3406593 C16.4469231,19.0171429 16.1843407,18.7545604 15.8608242,18.7545604 L12.9304396,18.7545604 L12.9304396,18.1684615 C12.9304396,17.4053846 12.4392857,16.7607143 11.7582967,16.5180769 L11.7582967,14.8958242 C12.0501099,14.5969231 12.6408791,13.9287912 13.3148901,12.8527473 Z M18.775989,4.68862637 C18.5474176,8.98692308 15.8420879,11.3136813 13.9924176,11.6676923 C14.8586264,10.0055495 15.7166484,7.69758242 16.1515385,4.68862637 L18.775989,4.68862637 Z M1.22401099,4.68862637 L3.84846154,4.68862637 C4.28335165,7.69758242 5.14137363,10.0055495 6.00758242,11.6676923 C4.15796703,11.3136813 1.45258242,8.98697802 1.22401099,4.68862637 Z M8.24175824,18.1685165 C8.24175824,17.845 8.50549451,17.5824176 8.82785714,17.5824176 L11.1721978,17.5824176 C11.4945055,17.5824176 11.7582418,17.845 11.7582418,18.1685165 L11.7582418,18.7546154 L8.24175824,18.7546154 L8.24175824,18.1685165 Z M9.4139011,16.4102747 L9.4139011,15.2381319 L10.586044,15.2381319 L10.586044,16.4102747 L9.4139011,16.4102747 Z M14.1025824,19.9267582 L14.1025824,26.9597253 L5.89741758,26.9597253 L5.89741758,19.9267582 L14.1025824,19.9267582 Z M10.9283516,14.0659341 L9.07164835,14.0659341 C8.30620879,13.255989 4.8917033,9.19675824 4.73115385,1.17214286 L15.2689011,1.17214286 C15.1082967,9.19675824 11.6937912,13.255989 10.9283516,14.0659341 Z" id="Shape"></path>
                </g>
            </g>
        </g>
    </g>
</svg>