<?xml version="1.0" encoding="UTF-8"?>
<svg width="74px" height="65px" viewBox="0 0 74 65" version="1.1" xmlns="http://www.w3.org/2000/svg" xmlns:xlink="http://www.w3.org/1999/xlink">
    <!-- Generator: Sketch 49 (51002) - http://www.bohemiancoding.com/sketch -->
    <title>chat</title>
    <desc>Created with Sketch.</desc>
    <defs>
        <linearGradient x1="100%" y1="0%" x2="0%" y2="100%" id="linearGradient-1">
            <stop stop-color="#EF0078" offset="0%"></stop>
            <stop stop-color="#D00069" offset="100%"></stop>
        </linearGradient>
    </defs>
    <g id="Authorization" stroke="none" stroke-width="1" fill="none" fill-rule="evenodd">
        <g id="LMbet_Message-New_Group" transform="translate(-917.000000, -292.000000)" fill="url(#linearGradient-1)" fill-rule="nonzero">
            <g id="left-side" transform="translate(119.000000, 61.000000)">
                <g id="Что-Такое-группа?" transform="translate(594.000000, 231.000000)">
                    <g id="chat" transform="translate(204.000000, 0.000000)">
                        <path d="M35.3181818,34.3181818 C35.3181818,31.4590909 33.1318182,29.2727273 30.2727273,29.2727273 C27.4136364,29.2727273 25.2272727,31.4590909 25.2272727,34.3181818 C25.2272727,37.1772727 27.4136364,39.3636364 30.2727273,39.3636364 C33.1318182,39.3636364 35.3181818,37.1772727 35.3181818,34.3181818 Z M28.5909091,34.3181818 C28.5909091,33.3090909 29.2636364,32.6363636 30.2727273,32.6363636 C31.2818182,32.6363636 31.9545455,33.3090909 31.9545455,34.3181818 C31.9545455,35.3272727 31.2818182,36 30.2727273,36 C29.2636364,36 28.5909091,35.3272727 28.5909091,34.3181818 Z M64.4136364,37.0090909 C68.45,33.4772727 70.6363636,28.9363636 70.6363636,24.2272727 C70.6363636,13.1272727 58.5272727,4.04545455 43.7272727,4.04545455 C35.6545455,4.04545455 27.9181818,6.90454545 22.8727273,11.4454545 C25.2272727,11.1090909 27.75,10.7727273 30.2727273,10.7727273 C46.9227273,10.7727273 60.5454545,21.3681818 60.5454545,34.3181818 C60.5454545,38.3545455 59.2,42.2227273 56.8454545,45.5863636 L63.9090909,49.7909091 L63.9090909,44.4090909 C63.9090909,43.4 64.5818182,42.7272727 65.5909091,42.7272727 C66.6,42.7272727 67.2727273,43.4 67.2727273,44.4090909 L67.2727273,52.8181818 C67.2727273,53.4909091 66.9363636,53.9954545 66.4318182,54.3318182 C66.0954545,54.5 65.9272727,54.5 65.5909091,54.5 C65.2545455,54.5 64.9181818,54.5 64.75,54.3318182 L54.6590909,48.2772727 C48.9409091,54.3318182 40.0272727,57.8636364 30.2727273,57.8636364 C28.2545455,57.8636364 26.4045455,57.8636364 24.5545455,57.5272727 C22.5363636,57.1909091 20.5181818,57.5272727 19.0045455,58.5363636 L9.25,64.4227273 C9.08181818,64.5909091 8.74545455,64.5909091 8.40909091,64.5909091 C8.07272727,64.5909091 7.90454545,64.5909091 7.56818182,64.4227273 C7.06363636,64.0863636 6.72727273,63.5818182 6.72727273,62.9090909 L6.72727273,54.5 C6.72727273,53.4909091 7.4,52.8181818 8.40909091,52.8181818 C9.41818182,52.8181818 10.0909091,53.4909091 10.0909091,54.5 L10.0909091,59.8818182 L17.3227273,55.6772727 C19.5090909,54.3318182 22.3681818,53.8272727 25.0590909,54.1636364 C26.7409091,54.3318182 28.5909091,54.5 30.2727273,54.5 C39.6909091,54.5 48.1,50.9681818 53.1454545,45.0818182 C55.8363636,41.8863636 57.1818182,38.1863636 57.1818182,34.3181818 C57.1818182,23.2181818 45.0727273,14.1363636 30.2727273,14.1363636 C26.2363636,14.1363636 22.3681818,14.8090909 18.6681818,16.1545455 C9.41818182,19.5181818 3.36363636,26.5818182 3.36363636,34.3181818 C3.36363636,39.0272727 5.55,43.5681818 9.41818182,47.1 C10.0909091,47.7727273 10.2590909,48.7818182 9.58636364,49.4545455 C8.91363636,50.1272727 7.90454545,50.2954545 7.23181818,49.6227273 C2.52272727,45.4181818 0,39.8681818 0,34.3181818 C0,25.4045455 6.72727273,16.9954545 16.8181818,12.9590909 C22.0318182,5.22272727 32.2909091,0.513636364 43.5590909,0.513636364 C60.2090909,0.513636364 73.8318182,11.1090909 73.8318182,24.0590909 C73.8318182,29.6090909 71.3090909,35.1590909 66.6,39.3636364 C66.2636364,39.7 65.7590909,39.8681818 65.4227273,39.8681818 C65.0863636,39.8681818 64.5818182,39.7 64.2454545,39.3636364 C63.7409091,38.6909091 63.7409091,37.6818182 64.4136364,37.0090909 Z M48.7727273,34.3181818 C48.7727273,37.1772727 46.5863636,39.3636364 43.7272727,39.3636364 C40.8681818,39.3636364 38.6818182,37.1772727 38.6818182,34.3181818 C38.6818182,31.4590909 40.8681818,29.2727273 43.7272727,29.2727273 C46.5863636,29.2727273 48.7727273,31.4590909 48.7727273,34.3181818 Z M42.0454545,34.3181818 C42.0454545,35.3272727 42.7181818,36 43.7272727,36 C44.7363636,36 45.4090909,35.3272727 45.4090909,34.3181818 C45.4090909,33.3090909 44.7363636,32.6363636 43.7272727,32.6363636 C42.7181818,32.6363636 42.0454545,33.3090909 42.0454545,34.3181818 Z M21.8636364,34.3181818 C21.8636364,37.1772727 19.6772727,39.3636364 16.8181818,39.3636364 C13.9590909,39.3636364 11.7727273,37.1772727 11.7727273,34.3181818 C11.7727273,31.4590909 13.9590909,29.2727273 16.8181818,29.2727273 C19.6772727,29.2727273 21.8636364,31.4590909 21.8636364,34.3181818 Z M15.1363636,34.3181818 C15.1363636,35.3272727 15.8090909,36 16.8181818,36 C17.8272727,36 18.5,35.3272727 18.5,34.3181818 C18.5,33.3090909 17.8272727,32.6363636 16.8181818,32.6363636 C15.8090909,32.6363636 15.1363636,33.3090909 15.1363636,34.3181818 Z"></path>
                    </g>
                </g>
            </g>
        </g>
    </g>
</svg>