<?xml version="1.0" encoding="UTF-8"?>
<svg width="16px" height="16px" viewBox="0 0 16 16" version="1.1" xmlns="http://www.w3.org/2000/svg" xmlns:xlink="http://www.w3.org/1999/xlink">
    <!-- Generator: Sketch 49 (51002) - http://www.bohemiancoding.com/sketch -->
    <title>edit</title>
    <desc>Created with Sketch.</desc>
    <defs></defs>
    <g id="Page" stroke="none" stroke-width="1" fill="none" fill-rule="evenodd">
        <g id="LMbet_Settings" transform="translate(-757.000000, -374.000000)" fill="#32303A">
            <g id="Настройки-аккаунта" transform="translate(480.000000, 180.000000)">
                <g id="ava" transform="translate(181.000000, 100.000000)">
                    <g id="icon">
                        <g id="edit" transform="translate(103.106602, 102.106602) rotate(-45.000000) translate(-103.106602, -102.106602) translate(93.106602, 100.106602)">
                            <path d="M3.77359245,-4.65316395e-16 L15.2,-8.8817842e-16 L15.2,4 L3.77359245,4 C3.39875302,4 3.03145778,3.89466111 2.71359457,3.69599661 L3.7081449e-14,2 L2.71359457,0.304003392 C3.03145778,0.10533889 3.39875302,6.88568868e-17 3.77359245,0 Z" id="Rectangle-3"></path>
                            <path d="M16.8,0 L19,0 C19.5522847,-1.01453063e-16 20,0.44771525 20,1 L20,3 C20,3.55228475 19.5522847,4 19,4 L16.8,4 L16.8,0 Z" id="Rectangle-4"></path>
                        </g>
                    </g>
                </g>
            </g>
        </g>
    </g>
</svg>