<?xml version="1.0" encoding="UTF-8"?>
<svg width="24px" height="15px" viewBox="0 0 24 15" version="1.1" xmlns="http://www.w3.org/2000/svg" xmlns:xlink="http://www.w3.org/1999/xlink">
    <!-- Generator: Sketch 49 (51002) - http://www.bohemiancoding.com/sketch -->
    <title>G</title>
    <desc>Created with Sketch.</desc>
    <defs></defs>
    <g id="Authorization" stroke="none" stroke-width="1" fill="none" fill-rule="evenodd">
        <g id="LMbet_Registration-2" transform="translate(-609.000000, -234.000000)" fill="#EA4336">
            <g id="Стань-частью-Look-My" transform="translate(280.000000, 121.000000)">
                <g id="sn-login" transform="translate(0.000000, 80.000000)">
                    <g id="sn-1" transform="translate(300.000000, 0.000000)">
                        <path d="M36.486857,39.014837 L43.6769734,39.014837 C44.177577,42.609019 42.6670042,48 36.486857,48 C32.3523502,48 29,44.6418085 29,40.4997079 C29,36.3576074 32.3523502,33 36.486857,33 C38.426769,33 40.1943612,33.7389306 41.5244363,34.9515947 C39.9577865,36.4341291 40.0091904,36.5223334 39.3935122,37.1391799 C38.6242066,36.5018887 37.7853888,36.0445111 36.486857,36.0445111 C34.0305697,36.0445111 32.113439,38.0393317 32.113439,40.4997079 C32.113439,42.9606683 34.0305697,44.9554889 36.486857,44.9554889 C38.9139375,44.9554889 39.8999572,43.9069668 40.5343277,41.981074 C39.3631372,41.981074 36.486857,41.985163 36.486857,41.985163 L36.486857,39.014837 Z M49.9774524,39.1632073 L52.5715955,39.1632073 L52.5715955,41.019588 L49.9774524,41.019588 L49.9774524,43.6931734 L48.1245765,43.6931734 L48.1245765,41.019588 L45.4556642,41.019588 L45.4556642,39.1632073 L48.1245765,39.1632073 L48.1245765,36.5643911 L49.9774524,36.5643911 L49.9774524,39.1632073 Z" id="G"></path>
                    </g>
                </g>
            </g>
        </g>
    </g>
</svg>