<?xml version="1.0" encoding="UTF-8"?>
<svg width="17px" height="17px" viewBox="0 0 17 17" version="1.1" xmlns="http://www.w3.org/2000/svg" xmlns:xlink="http://www.w3.org/1999/xlink">
    <!-- Generator: Sketch 50.2 (55047) - http://www.bohemiancoding.com/sketch -->
    <title>insta</title>
    <desc>Created with Sketch.</desc>
    <defs></defs>
    <g id="Bet" stroke="none" stroke-width="1" fill="none" fill-rule="evenodd">
        <g id="v2_LMbet_Account" transform="translate(-214.000000, -590.000000)" fill="#6B5C90">
            <g id="user-card" transform="translate(70.000000, 220.000000)">
                <g id="sn" transform="translate(102.000000, 370.000000)">
                    <path d="M50.4999831,1.53156254 C52.769592,1.53156254 53.038405,1.54020018 53.9346957,1.58109404 C54.7634373,1.61891748 55.2135058,1.75738973 55.5130567,1.87376176 C55.9097811,2.02795723 56.1929676,2.21218202 56.4903928,2.5096072 C56.787818,2.80703238 56.9720428,3.09021894 57.1262045,3.4869433 C57.2426103,3.78649415 57.3810825,4.23656273 57.418906,5.06527059 C57.4597998,5.96159503 57.4684375,6.23040801 57.4684375,8.50001687 C57.4684375,10.7696257 57.4597998,11.0384387 57.418906,11.9347294 C57.3810825,12.763471 57.2426103,13.2135396 57.1262045,13.5130904 C56.9720428,13.9098148 56.787818,14.1930014 56.4903928,14.4904265 C56.1929676,14.7878517 55.9097811,14.9720765 55.5130567,15.1262382 C55.2135058,15.242644 54.7634373,15.3811163 53.9346957,15.4189397 C53.0385399,15.4598336 52.769727,15.4684712 50.4999831,15.4684712 C48.2302393,15.4684712 47.9614263,15.4598336 47.0652706,15.4189397 C46.236529,15.3811163 45.7864604,15.242644 45.4869433,15.1262382 C45.0901852,14.9720765 44.8069986,14.7878517 44.5095735,14.4904265 C44.2121483,14.1930014 44.0279235,13.9098148 43.8737618,13.5130904 C43.757356,13.2135396 43.6188837,12.763471 43.5810603,11.9347631 C43.5401664,11.0384387 43.5315288,10.7696257 43.5315288,8.50001687 C43.5315288,6.23040801 43.5401664,5.96159503 43.5810603,5.06530433 C43.6188837,4.23656273 43.757356,3.78649415 43.8737618,3.4869433 C44.0279235,3.09021894 44.2121483,2.80703238 44.5095735,2.5096072 C44.8069986,2.21218202 45.0901852,2.02795723 45.4869433,1.87376176 C45.7864604,1.75738973 46.236529,1.61891748 47.0652369,1.58109404 C47.9615613,1.54020018 48.2303743,1.53156254 50.4999831,1.53156254 M50.4999831,0 C52.8084614,0 53.0979237,0.00978483291 54.0045054,0.0511510576 C54.909265,0.0924498006 55.5271266,0.23611814 56.067823,0.446255862 C56.6267731,0.663479153 57.1007977,0.954122431 57.5733376,1.42666238 C58.0458776,1.89920233 58.3365208,2.37322687 58.5537441,2.93217702 C58.7638819,3.47287339 58.9075502,4.09073497 58.9488489,4.99549461 C58.9902152,5.90207625 59,6.1915386 59,8.50001687 C59,10.8084951 58.9902152,11.0979575 58.9488489,12.0045391 C58.9075502,12.9092988 58.7638819,13.5271604 58.5537441,14.0678567 C58.3365208,14.6268069 58.0458776,15.1008314 57.5733376,15.5733714 C57.1007977,16.0459113 56.6267731,16.3365546 56.067823,16.5537779 C55.5271266,16.7639156 54.909265,16.9075839 54.0045054,16.9488827 C53.0979237,16.9902489 52.8084614,17 50.4999831,17 C48.1915049,17 47.9020763,16.9902489 46.9954609,16.9488827 C46.0907012,16.9075839 45.4728396,16.7639156 44.9321433,16.5537779 C44.3731931,16.3365546 43.8991686,16.0459113 43.4266286,15.5733714 C42.9540887,15.1008314 42.6634454,14.6267731 42.4462221,14.0678567 C42.2360844,13.5271604 42.0924161,12.9092988 42.0511173,12.0045391 C42.0097511,11.0979575 42,10.8084951 42,8.50001687 C42,6.1915386 42.0097511,5.90207625 42.0511173,4.99549461 C42.0924161,4.09073497 42.2360844,3.47287339 42.4462221,2.93217702 C42.6634454,2.37322687 42.9540887,1.89920233 43.4266286,1.42666238 C43.8991686,0.954122431 44.3731931,0.663479153 44.9321433,0.446255862 C45.4728396,0.23611814 46.0907012,0.0924498006 46.9954609,0.0511510576 C47.9020763,0.00978483291 48.1915049,0 50.4999831,0 Z M50.5168651,4.14880952 C48.1044653,4.14880952 46.1488095,6.1044653 46.1488095,8.51686508 C46.1488095,10.9292649 48.1044653,12.8849206 50.5168651,12.8849206 C52.9292649,12.8849206 54.8849206,10.9292649 54.8849206,8.51686508 C54.8849206,6.1044653 52.9292649,4.14880952 50.5168651,4.14880952 Z M50.5168651,11.3522773 C48.9509291,11.3522773 47.6814529,10.0828011 47.6814529,8.51686508 C47.6814529,6.95092906 48.9509291,5.6814529 50.5168651,5.6814529 C52.0828011,5.6814529 53.3522773,6.95092906 53.3522773,8.51686508 C53.3522773,10.0828011 52.0828011,11.3522773 50.5168651,11.3522773 Z M56.031746,3.94641183 C56.031746,3.38754705 55.5787228,2.93452381 55.019858,2.93452381 C54.4609932,2.93452381 54.0079365,3.38754705 54.0079365,3.94641183 C54.0079365,4.50527662 54.4609932,4.95833333 55.019858,4.95833333 C55.5787228,4.95833333 56.031746,4.50527662 56.031746,3.94641183 Z" id="insta"></path>
                </g>
            </g>
        </g>
    </g>
</svg>