<?xml version="1.0" encoding="UTF-8"?>
<svg width="16px" height="23px" viewBox="0 0 16 23" version="1.1" xmlns="http://www.w3.org/2000/svg" xmlns:xlink="http://www.w3.org/1999/xlink">
    <!-- Generator: Sketch 50.2 (55047) - http://www.bohemiancoding.com/sketch -->
    <title>close</title>
    <desc>Created with Sketch.</desc>
    <defs></defs>
    <g id="Bet" stroke="none" stroke-width="1" fill="none" fill-rule="evenodd">
        <g id="v2_LMbet_Last_Bets" transform="translate(-884.000000, -270.000000)" fill="#D00069">
            <g id="l4" transform="translate(70.000000, 140.000000)">
                <g id="bet-1" transform="translate(440.000000, 100.000000)">
                    <g id="close" transform="translate(374.000000, 30.000000)">
                        <path d="M13.7607279,8.80751409 L13.7607279,5.87198772 C13.7607279,2.62866585 11.1314387,0 7.88867782,0 C4.64541828,0 2.0166901,2.62866585 2.0166901,5.87198772 L2.0166901,8.80751409 C0.935852913,8.80751409 0.0594647448,9.68390226 0.0594647448,10.7647394 L0.0594647448,20.5518635 C0.0594647448,21.63295 0.935852913,22.5092135 2.0166901,22.5092135 L13.7607279,22.5092135 C14.8416274,22.5092135 15.7178286,21.6328877 15.7178286,20.5518635 L15.7178286,10.7647394 C15.7178909,9.68390226 14.8416274,8.80751409 13.7607279,8.80751409 Z M3.97404012,5.87198772 C3.97404012,3.70969003 5.72681645,1.95735002 7.88867782,1.95735002 C10.0506638,1.95735002 11.8034402,3.7096277 11.8034402,5.87198772 L11.8034402,8.80751409 L3.97404012,8.80751409 L3.97404012,5.87198772 Z M13.8035025,20.7865631 L2.05946474,20.7865631 L2.05946474,11 L13.8035025,11 L13.8035025,20.7865631 Z" id="Shape" fill-rule="nonzero"></path>
                        <circle id="Oval-2" cx="8" cy="15.5" r="1.5"></circle>
                    </g>
                </g>
            </g>
        </g>
    </g>
</svg>