<?xml version="1.0" encoding="UTF-8"?>
<svg width="40px" height="40px" viewBox="0 0 40 40" version="1.1" xmlns="http://www.w3.org/2000/svg" xmlns:xlink="http://www.w3.org/1999/xlink">
    <!-- Generator: Sketch 49 (51002) - http://www.bohemiancoding.com/sketch -->
    <title>logo_red</title>
    <desc>Created with Sketch.</desc>
    <defs></defs>
    <g id="Authorization" stroke="none" stroke-width="1" fill="none" fill-rule="evenodd">
        <g id="LMbet_Registration-2" transform="translate(-979.000000, -142.000000)" fill="#D00069">
            <g id="right-side" transform="translate(919.000000, 61.000000)">
                <g id="back">
                    <path d="M90.3809143,95.0274899 C90.1327246,94.4700755 89.7156521,94.0756622 89.141364,93.8551455 C88.5788393,93.639209 88.0107221,93.6556489 87.4527774,93.9036939 C86.8953149,94.1521729 86.5009498,94.5691489 86.2806742,95.1430996 L81.1044634,108.62759 C80.8840432,109.201878 80.8980725,109.775684 81.1463104,110.333147 C81.3945001,110.890706 81.8057872,111.282902 82.368553,111.498838 C82.6387751,111.602636 82.9088043,111.654463 83.1770015,111.654463 C83.4791874,111.654463 83.7790109,111.588655 84.0740616,111.457184 C84.6315241,111.209235 85.0260339,110.792115 85.2465023,110.217489 L85.2465023,110.217537 L90.4227131,96.7330949 C90.6430851,96.1588067 90.629104,95.5849524 90.3809143,95.0274899 M80,115.361206 C78.911157,115.361206 77.8505173,115.23875 76.830423,115.008061 L80.8350127,104.57585 C81.0554329,104.001514 81.0414035,103.42766 80.7932138,102.870197 C80.5449759,102.312783 80.1279035,101.918321 79.5536635,101.697901 C78.9910906,101.482013 78.4230699,101.498211 77.865077,101.746497 C77.3075662,101.99488 76.9132493,102.411856 76.6929255,102.985855 L72.7078131,113.367348 C72.1594141,113.042744 71.6337708,112.683524 71.1352219,112.291232 L76.3008745,98.8345595 C76.5212465,98.2601749 76.507169,97.6863206 76.2589793,97.1290027 C76.0107896,96.5714919 75.5937654,96.1770786 75.019429,95.9566584 C74.4569043,95.7407218 73.8888835,95.7570171 73.3308424,96.0052068 C72.7733799,96.2536375 72.3790148,96.6706617 72.1587392,97.2446124 L67.8075132,108.57991 C66.4338884,106.378407 65.6387461,103.780515 65.6387461,101 C65.6387461,93.0812161 72.0811679,86.6387461 80,86.6387461 C87.9187839,86.6387461 94.3612539,93.0812161 94.3612539,101 C94.3612539,108.918832 87.9187839,115.361206 80,115.361206 Z M100,101 C100,95.6577991 97.9196517,90.635381 94.1421354,86.8578646 C90.3645708,83.0803965 85.3421527,81 80,81 C74.6577991,81 69.635381,83.0803965 65.8578646,86.8578646 C62.0803965,90.635381 60,95.6577991 60,101 C60,106.342201 62.0803965,111.364667 65.8578646,115.142087 C69.635381,118.919652 74.6577991,120.999952 80,120.999952 C85.3421527,120.999952 90.3645708,118.919652 94.1421354,115.142087 C97.9196517,111.364667 100,106.342201 100,101 Z" id="logo_red"></path>
                </g>
            </g>
        </g>
    </g>
</svg>