<?xml version="1.0" encoding="UTF-8"?>
<svg width="74px" height="64px" viewBox="0 0 74 64" version="1.1" xmlns="http://www.w3.org/2000/svg" xmlns:xlink="http://www.w3.org/1999/xlink">
    <!-- Generator: Sketch 49 (51002) - http://www.bohemiancoding.com/sketch -->
    <title>message</title>
    <desc>Created with Sketch.</desc>
    <defs>
        <linearGradient x1="100%" y1="0%" x2="0%" y2="100%" id="linearGradient-1">
            <stop stop-color="#EF0078" offset="0%"></stop>
            <stop stop-color="#D00069" offset="100%"></stop>
        </linearGradient>
    </defs>
    <g id="Authorization" stroke="none" stroke-width="1" fill="none" fill-rule="evenodd">
        <g id="LMbet_Message-New_Chanel" transform="translate(-917.000000, -292.000000)" fill="url(#linearGradient-1)" fill-rule="nonzero">
            <g id="left-side" transform="translate(119.000000, 61.000000)">
                <g id="Что-Такое-канал?" transform="translate(594.000000, 231.000000)">
                    <g id="message" transform="translate(204.000000, 0.000000)">
                        <path d="M23.5454545,16.8181818 C22.5363636,16.8181818 21.8636364,16.1454545 21.8636364,15.1363636 C21.8636364,14.1272727 22.5363636,13.4545455 23.5454545,13.4545455 L50.4545455,13.4545455 C51.4636364,13.4545455 52.1363636,14.1272727 52.1363636,15.1363636 C52.1363636,16.1454545 51.4636364,16.8181818 50.4545455,16.8181818 L23.5454545,16.8181818 Z M23.5454545,25.2272727 C22.5363636,25.2272727 21.8636364,24.5545455 21.8636364,23.5454545 C21.8636364,22.5363636 22.5363636,21.8636364 23.5454545,21.8636364 L40.3636364,21.8636364 C41.3727273,21.8636364 42.0454545,22.5363636 42.0454545,23.5454545 C42.0454545,24.5545455 41.3727273,25.2272727 40.3636364,25.2272727 L23.5454545,25.2272727 Z M23.5454545,33.6363636 C22.5363636,33.6363636 21.8636364,32.9636364 21.8636364,31.9545455 C21.8636364,30.9454545 22.5363636,30.2727273 23.5454545,30.2727273 L47.0909091,30.2727273 C48.1,30.2727273 48.7727273,30.9454545 48.7727273,31.9545455 C48.7727273,32.9636364 48.1,33.6363636 47.0909091,33.6363636 L23.5454545,33.6363636 Z M68.9545455,0 C71.8136364,0 74,2.18636364 74,5.04545455 L74,42.0454545 C74,44.9045455 71.8136364,47.0909091 68.9545455,47.0909091 L35.6545455,47.0909091 C33.6363636,47.0909091 31.7863636,47.9318182 30.2727273,49.1090909 L12.7818182,63.5727273 C12.6136364,63.7409091 12.1090909,63.9090909 11.7727273,63.9090909 C11.6045455,63.9090909 11.2681818,63.9090909 11.1,63.7409091 C10.4272727,63.4045455 10.0909091,62.9 10.0909091,62.2272727 L10.0909091,52.1363636 C10.0909091,51.1272727 10.7636364,50.4545455 11.7727273,50.4545455 C12.7818182,50.4545455 13.4545455,51.1272727 13.4545455,52.1363636 L13.4545455,58.6954545 L28.0863636,46.4181818 C30.2727273,44.7363636 32.9636364,43.7272727 35.6545455,43.7272727 L68.9545455,43.7272727 C69.9636364,43.7272727 70.6363636,43.0545455 70.6363636,42.0454545 L70.6363636,5.04545455 C70.6363636,4.03636364 69.9636364,3.36363636 68.9545455,3.36363636 L5.04545455,3.36363636 C4.03636364,3.36363636 3.36363636,4.03636364 3.36363636,5.04545455 L3.36363636,42.0454545 C3.36363636,43.0545455 4.03636364,43.7272727 5.04545455,43.7272727 L11.7727273,43.7272727 C12.7818182,43.7272727 13.4545455,44.4 13.4545455,45.4090909 C13.4545455,46.4181818 12.7818182,47.0909091 11.7727273,47.0909091 L5.04545455,47.0909091 C2.18636364,47.0909091 0,44.9045455 0,42.0454545 L0,5.04545455 C0,2.18636364 2.18636364,0 5.04545455,0 L68.9545455,0 Z"></path>
                    </g>
                </g>
            </g>
        </g>
    </g>
</svg>