<?xml version="1.0" encoding="UTF-8"?>
<svg width="24px" height="24px" viewBox="0 0 24 24" version="1.1" xmlns="http://www.w3.org/2000/svg" xmlns:xlink="http://www.w3.org/1999/xlink">
    <!-- Generator: Sketch 50.2 (55047) - http://www.bohemiancoding.com/sketch -->
    <title>open</title>
    <desc>Created with Sketch.</desc>
    <defs></defs>
    <g id="Bet" stroke="none" stroke-width="1" fill="none" fill-rule="evenodd">
        <g id="v2_LMbet_Last_Bets" transform="translate(-436.000000, -270.000000)" fill="#6B5C90">
            <g id="l4" transform="translate(70.000000, 140.000000)">
                <g id="bet-1" transform="translate(0.000000, 100.000000)">
                    <g id="open" transform="translate(366.000000, 30.000000)">
                        <path d="M21.9893475,9.04933687 L11.9942069,9.04933687 L11.9942069,6.05124668 C11.9942069,2.73886472 9.30900796,0.0541114058 5.99707162,0.0541114058 C2.68481698,0.0541114058 0,2.73880106 0,6.05124668 L0,10.049252 C0,10.601061 0.447851459,11.0487851 0.999533156,11.0487851 C1.55134218,11.0487851 1.99906631,10.601061 1.99906631,10.049252 L1.99906631,6.05124668 C1.99906631,3.84286472 3.78868966,2.05317772 5.99707162,2.05317772 C8.2049443,2.05317772 9.99520424,3.84280106 9.99520424,6.05124668 L9.99520424,9.04933687 C8.89120424,9.04933687 7.99613793,9.94440318 7.99613793,11.0482759 L7.99613793,21.0439894 C7.99613793,22.1481167 8.8912679,23.0430557 9.99520424,23.0430557 L21.9892838,23.0430557 C23.0934111,23.0430557 23.9883501,22.1480531 23.9883501,21.0439894 L23.9883501,11.0482759 C23.9884138,9.94440318 23.0934748,9.04933687 21.9893475,9.04933687 Z M21.9940796,21.049252 L10,21.049252 L10,11.0541114 L21.9940796,11.0541114 L21.9940796,21.049252 Z" id="Shape" fill-rule="nonzero"></path>
                        <circle id="Oval-2" cx="16" cy="15.5" r="1.5"></circle>
                    </g>
                </g>
            </g>
        </g>
    </g>
</svg>