<?xml version="1.0" encoding="UTF-8"?>
<svg width="23px" height="23px" viewBox="0 0 23 23" version="1.1" xmlns="http://www.w3.org/2000/svg" xmlns:xlink="http://www.w3.org/1999/xlink">
    <!-- Generator: Sketch 50.2 (55047) - http://www.bohemiancoding.com/sketch -->
    <title>personal</title>
    <desc>Created with Sketch.</desc>
    <defs></defs>
    <g id="Bet" stroke="none" stroke-width="1" fill="none" fill-rule="evenodd">
        <g id="v2_LMbet_My_Account" transform="translate(-404.000000, -1251.000000)" fill="#D00069" fill-rule="nonzero">
            <g id="Мои-Ставки" transform="translate(70.000000, 1121.000000)">
                <g id="bet-1" transform="translate(0.000000, 100.000000)">
                    <g id="personal" transform="translate(334.000000, 30.000000)">
                        <path d="M5.90722656,21.203125 L2.72644336,21.203125 C2.34290039,21.203125 2.11150781,20.9890723 2.00773828,20.8614492 C1.82858984,20.6410625 1.75918555,20.3542812 1.81744922,20.0744629 C2.75043164,15.5930117 6.70535352,12.3202285 11.2710332,12.2140332 C11.3470859,12.2168633 11.4233184,12.21875 11.5,12.21875 C11.5773555,12.21875 11.6542617,12.2168184 11.7309883,12.2139434 C12.8474316,12.2394141 13.9379551,12.449334 14.9759648,12.8391211 C15.440457,13.0136426 15.9584512,12.7783867 16.1328828,12.3138496 C16.3073145,11.8493574 16.0721484,11.3313633 15.6076113,11.1569316 C15.458875,11.1010488 15.3091055,11.0487598 15.1586172,10.999166 C16.6455762,9.88375586 17.609375,8.10700586 17.609375,6.109375 C17.609375,2.74068359 14.8687363,0 11.5,0 C8.13126367,0 5.390625,2.74068359 5.390625,6.109375 C5.390625,8.10880273 6.35608594,9.88694531 7.84529102,11.0021758 C6.48096875,11.4513047 5.20069531,12.14975 4.08025391,13.0713672 C2.02588672,14.7611934 0.597505859,17.1181992 0.0583085937,19.7082598 C-0.1106875,20.5198184 0.0917304687,21.3533887 0.613677734,21.9951426 C1.13297461,22.633752 1.90307031,23 2.72644336,23 L5.90722656,23 C6.40343359,23 6.80566406,22.5977695 6.80566406,22.1015625 C6.80566406,21.6053555 6.40343359,21.203125 5.90722656,21.203125 Z M7.1875,6.109375 C7.1875,3.73143555 9.12206055,1.796875 11.5,1.796875 C13.8779395,1.796875 15.8125,3.73143555 15.8125,6.109375 C15.8125,8.41687695 13.9907383,10.3067852 11.7099648,10.416709 C11.6400215,10.4154512 11.5700781,10.414373 11.5,10.414373 C11.4297422,10.414373 11.3595293,10.4154062 11.2893613,10.4166641 C9.00890234,10.3064258 7.1875,8.41665234 7.1875,6.109375 Z" id="Shape"></path>
                        <path d="M22.3122012,15.4803926 C21.927625,14.6201387 21.0613516,14.062748 20.103123,14.0605469 L17.3012559,14.0605469 C17.2992344,14.0605469 17.2973477,14.0605469 17.2952812,14.0605469 C16.2845391,14.0605469 15.4027227,14.6562109 15.0478848,15.5792207 C15.0006719,15.7020371 14.9429473,15.856748 14.882707,16.0371094 L9.00036719,16.0371094 C8.75747461,16.0371094 8.52495898,16.1354434 8.35573828,16.3096953 L6.81240234,17.8993906 C6.47247852,18.2495117 6.47418555,18.8069473 6.8162207,19.154957 L8.38848633,20.7547148 C8.55739258,20.9265859 8.78829102,21.0233926 9.02925195,21.0233926 L11.9491738,21.0233926 C12.4453809,21.0233926 12.8476113,20.6211621 12.8476113,20.1249551 C12.8476113,19.628748 12.4453809,19.2265176 11.9491738,19.2265176 L9.4059668,19.2265176 L8.71291211,18.521334 L9.38031641,17.8339844 L15.5566699,17.8339844 C15.9705801,17.8339844 16.3308984,17.5512012 16.4293223,17.1491953 C16.5020059,16.8523965 16.5931973,16.5670527 16.7250879,16.2239844 C16.8120566,15.9977578 17.0304668,15.8574219 17.2974375,15.8574219 C17.2980215,15.8574219 17.2986055,15.8574219 17.2991895,15.8574219 L20.1010117,15.8574219 C20.3550898,15.8580059 20.5737695,15.9945684 20.6717441,16.2137422 C20.9129297,16.7533437 21.2009238,17.5887109 21.2030801,18.5041289 C21.2052363,19.4263301 20.9175566,20.280834 20.6757422,20.8353047 C20.5782617,21.0589258 20.3577402,21.203125 20.1115234,21.203125 C20.1110293,21.203125 20.1105352,21.203125 20.110041,21.203125 L17.2743477,21.203125 C17.0257949,21.202541 16.7929648,21.0426191 16.6950352,20.805207 C16.5899629,20.5504551 16.4989062,20.2595859 16.4166543,19.9158887 C16.3011602,19.4333379 15.8161836,19.1357754 15.3338125,19.2512246 C14.8512168,19.3667188 14.5536543,19.8515605 14.6691484,20.3341113 C14.7734121,20.7698086 14.8927695,21.1480059 15.033959,21.4903105 C15.4112578,22.4050996 16.2890312,22.9976641 17.2722812,22.9999551 L20.1079746,22.9999551 C20.1099062,22.9999551 20.1117031,22.9999551 20.1136348,22.9999551 C21.0727617,22.9999102 21.9395742,22.4325918 22.3228926,21.5534258 C22.6333926,20.8413691 23.002875,19.7335957 22.9999551,18.4998613 C22.9970801,17.2694961 22.6243633,16.178748 22.3122012,15.4803926 Z" id="Shape"></path>
                    </g>
                </g>
            </g>
        </g>
    </g>
</svg>