<?xml version="1.0" encoding="UTF-8"?>
<svg width="24px" height="24px" viewBox="0 0 24 24" version="1.1" xmlns="http://www.w3.org/2000/svg" xmlns:xlink="http://www.w3.org/1999/xlink">
    <!-- Generator: Sketch 49 (51002) - http://www.bohemiancoding.com/sketch -->
    <title>football-outline</title>
    <desc>Created with Sketch.</desc>
    <defs></defs>
    <g id="Account" stroke="none" stroke-width="1" fill="none" fill-rule="evenodd">
        <g id="LMbet_Account-Sports-Popup" transform="translate(-508.000000, -486.000000)" fill="#32303A" fill-rule="nonzero">
            <g id="popup" transform="translate(330.000000, 206.000000)">
                <g id="list" transform="translate(60.000000, 148.000000)">
                    <g id="Футбол" transform="translate(100.000000, 114.000000)">
                        <g id="football-outline" transform="translate(18.000000, 18.000000)">
                            <path d="M12,0 C4.104,0 -2.0175,7.629 0.6225,15.9255 C2.175,20.8065 6.8775,24 12,24 C19.896,24 26.016,16.371 23.3775,8.0745 C21.825,3.1935 17.121,0 12,0 Z M12.015,1.5 C12.78,1.5 13.5255,1.59 14.244,1.7475 L12.441,3.015 C12.1815,3.198 11.8365,3.198 11.577,3.015 L9.771,1.7445 C10.4895,1.587 11.2335,1.5 12,1.5 L12.015,1.5 Z M21.069,6.735 C21.8055,7.9995 22.2945,9.4245 22.446,10.95 L20.694,9.636 C20.4405,9.447 20.334,9.1185 20.427,8.8155 L21.069,6.735 Z M13.0785,4.4025 L15.687,2.5665 C15.909,2.4105 16.2015,2.3775 16.4475,2.493 C17.676,3.0705 18.774,3.882 19.6875,4.866 C19.8705,5.064 19.929,5.3505 19.8495,5.607 L18.915,8.6385 C18.843,8.871 18.6615,9.0555 18.429,9.1305 L16.785,9.6645 C16.557,9.7395 16.3065,9.699 16.113,9.558 L13.068,7.3455 C12.8745,7.206 12.759,6.9795 12.759,6.7395 L12.759,5.0145 C12.759,4.7715 12.879,4.542 13.0785,4.4025 Z M12.45,8.751 L14.9655,10.578 C15.228,10.7685 15.339,11.1075 15.2385,11.4165 L14.277,14.3745 C14.1765,14.6835 13.8885,14.892 13.5645,14.892 L10.455,14.892 C10.131,14.892 9.843,14.682 9.741,14.3745 L8.781,11.418 C8.6805,11.109 8.7915,10.77 9.054,10.5795 L11.5695,8.7525 C11.832,8.5605 12.1875,8.5605 12.45,8.751 Z M8.325,2.5605 L10.9425,4.4025 C11.142,4.5435 11.2605,4.7715 11.2605,5.016 L11.2605,6.741 C11.2605,6.981 11.145,7.2075 10.9515,7.347 L7.9185,9.552 C7.722,9.6915 7.473,9.732 7.245,9.657 L5.5695,9.1125 C5.3385,9.0375 5.157,8.8545 5.085,8.6205 L4.155,5.604 C4.0755,5.346 4.134,5.0595 4.317,4.8615 C5.232,3.876 6.333,3.063 7.566,2.487 C7.8105,2.3715 8.103,2.4045 8.325,2.5605 Z M2.934,6.7305 L3.57,8.799 C3.663,9.102 3.5565,9.429 3.303,9.6195 L1.554,10.932 C1.7085,9.411 2.1975,7.9905 2.934,6.7305 Z M2.826,17.094 C2.1675,15.912 1.743,14.613 1.581,13.2525 C1.5495,12.9855 1.671,12.7185 1.887,12.558 L4.425,10.653 C4.62,10.506 4.875,10.464 5.1075,10.539 L6.7695,11.079 C6.9975,11.154 7.176,11.3325 7.251,11.5605 L8.415,15.1425 C8.4885,15.3705 8.4495,15.621 8.3085,15.8145 L7.2915,17.214 C7.1475,17.412 6.918,17.526 6.6735,17.523 L3.4815,17.475 C3.213,17.472 2.958,17.3295 2.826,17.094 Z M4.5645,19.413 C4.428,19.2765 4.3065,19.1295 4.179,18.987 L6.375,19.02 C6.6915,19.0245 6.9705,19.2285 7.074,19.527 L7.788,21.615 C6.6,21.0945 5.5065,20.3595 4.5645,19.413 Z M14.586,21.7905 C14.499,22.0425 14.289,22.236 14.028,22.29 C13.3665,22.4235 12.6855,22.5 11.985,22.5 C11.3085,22.5 10.644,22.4265 9.9945,22.299 C9.732,22.248 9.5205,22.0515 9.4335,21.7995 L8.4015,18.78 C8.3235,18.549 8.361,18.294 8.505,18.096 L9.519,16.6995 C9.66,16.506 9.8865,16.3905 10.1265,16.3905 L13.8915,16.3905 C14.1315,16.3905 14.358,16.506 14.499,16.6995 L15.513,18.096 C15.657,18.294 15.6945,18.549 15.6165,18.78 L14.586,21.7905 Z M16.236,21.5955 L16.9425,19.5285 C17.0445,19.2285 17.325,19.026 17.6415,19.0215 L19.8105,18.99 C18.822,20.091 17.61,20.9865 16.236,21.5955 Z M20.508,17.4765 L17.3415,17.5245 C17.097,17.5275 16.8675,17.4135 16.7235,17.2155 L15.7095,15.819 C15.5685,15.6255 15.528,15.375 15.603,15.147 L16.764,11.574 C16.839,11.346 17.0175,11.1675 17.2455,11.0925 L18.891,10.5585 C19.1235,10.4835 19.377,10.5255 19.5735,10.6725 L22.1055,12.5715 C22.3215,12.7335 22.4445,13.0035 22.4115,13.2705 C22.245,14.646 21.81,15.9375 21.162,17.097 C21.0315,17.331 20.778,17.472 20.508,17.4765 Z" id="Shape"></path>
                        </g>
                    </g>
                </g>
            </g>
        </g>
    </g>
</svg>