<?xml version="1.0" encoding="UTF-8"?>
<svg width="24px" height="24px" viewBox="0 0 24 24" version="1.1" xmlns="http://www.w3.org/2000/svg" xmlns:xlink="http://www.w3.org/1999/xlink">
    <!-- Generator: Sketch 49 (51002) - http://www.bohemiancoding.com/sketch -->
    <title>tennis-outline</title>
    <desc>Created with Sketch.</desc>
    <defs></defs>
    <g id="Account" stroke="none" stroke-width="1" fill="none" fill-rule="evenodd">
        <g id="LMbet_Account-Sports-Popup" transform="translate(-608.000000, -372.000000)" fill="#32303A" fill-rule="nonzero">
            <g id="popup" transform="translate(330.000000, 206.000000)">
                <g id="list" transform="translate(60.000000, 148.000000)">
                    <g id="Большой-теннис" transform="translate(192.000000, 0.000000)">
                        <g id="tennis-outline" transform="translate(26.000000, 18.000000)">
                            <path d="M3.00149937,6.003 C4.65899903,6.003 6.00299875,4.6605 6.00299875,3.0045 C6.00449875,1.3485 4.66049903,0.0045 3.00449937,0.003 L3.00299937,0.003 C1.34699972,0.003 0.00449999969,1.3455 0.003,3.003 C0.003,4.659 1.34399972,6.003 3.00149937,6.003 Z M3.0045,1.503 C3.831,1.503 4.503,2.1765 4.503,3.003 C4.503,3.8295 3.8295,4.503 3.003,4.503 C2.175,4.503 1.503,3.8295 1.503,3.003 C1.5045,2.1765 2.1765,1.5045 3.0045,1.503 Z" id="Shape"></path>
                            <path d="M21.9105,2.0895 C20.508,0.6855 18.624,0 16.632,0 C14.1345,0 11.4675,1.0785 9.3735,3.1725 C7.2105,5.3385 6.1365,8.115 6.213,10.6875 C6.213,10.698 6.207,10.7085 6.207,10.719 L6.1935,11.355 C6.1545,13.362 6.129,14.688 5.1645,15.7035 C5.1615,15.7065 5.16,15.711 5.157,15.714 L0.4305,20.442 C-0.144,21.018 -0.144,21.9495 0.4305,22.5255 L1.4715,23.5665 C1.7595,23.856 2.1375,24 2.514,24 C2.8905,24 3.267,23.856 3.555,23.568 L8.2785,18.8415 C8.283,18.8385 8.289,18.837 8.2935,18.8325 C9.3045,17.8755 10.6245,17.8515 12.624,17.8155 L13.4055,17.7975 C15.9045,17.7975 18.7365,16.725 20.8275,14.631 C24.5895,10.869 25.0755,5.253 21.9105,2.0895 Z M2.532,22.5075 L1.491,21.504 L5.181,17.8125 L6.189,18.8205 L2.532,22.5075 Z M20.85,3.15 C21.2835,3.5835 21.5985,4.092 21.861,4.6275 L18.912,7.5765 L16.4145,5.0775 L19.3665,2.124 C19.911,2.391 20.418,2.718 20.85,3.15 Z M17.8515,8.637 L14.748,11.7435 L12.2505,9.246 L15.3555,6.1395 L17.8515,8.637 Z M16.6335,1.5 C17.0265,1.5 17.406,1.5375 17.7735,1.599 L15.357,4.017 L13.5,2.1615 C14.5155,1.734 15.5805,1.5 16.6335,1.5 Z M10.434,4.233 C10.9515,3.7155 11.5185,3.273 12.1125,2.895 L14.295,5.079 L11.19,8.1855 L9.0435,6.0375 C9.4335,5.406 9.8775,4.791 10.434,4.233 Z M8.331,7.446 L10.1295,9.246 L7.824,11.553 C7.602,10.242 7.779,8.8245 8.331,7.446 Z M7.263,17.745 C7.257,17.7495 7.2555,17.757 7.251,17.7615 L6.237,16.7475 C6.2415,16.743 6.249,16.7415 6.255,16.7355 C6.861,16.095 7.1955,15.3765 7.395,14.5965 C7.653,14.994 7.9455,15.372 8.2905,15.717 C8.6325,16.059 9.0045,16.3545 9.396,16.611 C8.616,16.806 7.9005,17.139 7.263,17.745 Z M9.351,14.6565 C8.913,14.2185 8.5965,13.704 8.3355,13.1625 L11.19,10.3065 L13.6875,12.8055 L10.821,15.6735 C10.281,15.408 9.78,15.084 9.351,14.6565 Z M13.569,16.305 C13.1685,16.305 12.7845,16.269 12.411,16.2045 L14.7495,13.8645 L16.5765,15.6915 C15.597,16.086 14.5785,16.305 13.569,16.305 Z M19.767,13.5705 C19.2195,14.1195 18.615,14.5845 17.982,14.9775 L15.81,12.804 L18.9135,9.699 L21.093,11.8785 C20.7165,12.4695 20.292,13.0455 19.767,13.5705 Z M19.9725,8.637 L22.374,6.234 C22.6065,7.5885 22.4175,9.063 21.822,10.485 L19.9725,8.637 Z" id="Shape"></path>
                        </g>
                    </g>
                </g>
            </g>
        </g>
    </g>
</svg>