<?xml version="1.0" encoding="UTF-8"?>
<svg width="14px" height="15px" viewBox="0 0 14 15" version="1.1" xmlns="http://www.w3.org/2000/svg" xmlns:xlink="http://www.w3.org/1999/xlink">
    <!-- Generator: Sketch 49 (51002) - http://www.bohemiancoding.com/sketch -->
    <title>setting</title>
    <desc>Created with Sketch.</desc>
    <defs></defs>
    <g id="Account" stroke="none" stroke-width="1" fill="none" fill-rule="evenodd">
        <g id="LMbet_Account-Users_Card" transform="translate(-240.000000, -589.000000)" fill="#FFFFFF">
            <g id="user-card" transform="translate(80.000000, 76.000000)">
                <g id="НАСТРОЙКИ" transform="translate(136.000000, 500.000000)">
                    <path d="M36.3484943,20.9016171 C36.3772798,20.6713331 36.3988689,20.4410492 36.3988689,20.1963726 C36.3988689,19.9516959 36.3772798,19.721412 36.3484943,19.491128 L37.8669289,18.3037266 C38.00366,18.195781 38.0396419,18.0014789 37.9532854,17.8431587 L36.5140109,15.3532138 C36.4276544,15.1948936 36.2333523,15.1373226 36.0750321,15.1948936 L34.2831354,15.9145309 C33.908924,15.626676 33.5059271,15.3891957 33.0669484,15.2092864 L32.7934863,13.3022476 C32.7718971,13.1295347 32.6207733,13 32.440864,13 L29.562315,13 C29.3824057,13 29.2312818,13.1295347 29.2096927,13.3022476 L28.9362306,15.2092864 C28.4972518,15.3891957 28.094255,15.6338724 27.7200436,15.9145309 L25.9281468,15.1948936 C25.7626303,15.1301263 25.5755246,15.1948936 25.4891681,15.3532138 L24.0498936,17.8431587 C23.9563408,18.0014789 23.999519,18.195781 24.1362501,18.3037266 L25.6546847,19.491128 C25.6258992,19.721412 25.6043101,19.9588923 25.6043101,20.1963726 C25.6043101,20.4338529 25.6258992,20.6713331 25.6546847,20.9016171 L24.1362501,22.0890185 C23.999519,22.1969641 23.9635371,22.3912662 24.0498936,22.5495864 L25.4891681,25.0395313 C25.5755246,25.1978515 25.7698266,25.2554225 25.9281468,25.1978515 L27.7200436,24.4782142 C28.094255,24.7660691 28.4972518,25.0035494 28.9362306,25.1834587 L29.2096927,27.0904975 C29.2312818,27.2632104 29.3824057,27.3927451 29.562315,27.3927451 L32.440864,27.3927451 C32.6207733,27.3927451 32.7718971,27.2632104 32.7934863,27.0904975 L33.0669484,25.1834587 C33.5059271,25.0035494 33.908924,24.7588728 34.2831354,24.4782142 L36.0750321,25.1978515 C36.2405487,25.2626188 36.4276544,25.1978515 36.5140109,25.0395313 L37.9532854,22.5495864 C38.0396419,22.3912662 38.00366,22.1969641 37.8669289,22.0890185 L36.3484943,20.9016171 L36.3484943,20.9016171 Z M31.0015895,22.715103 C29.6126896,22.715103 28.4828591,21.5852725 28.4828591,20.1963726 C28.4828591,18.8074727 29.6126896,17.6776422 31.0015895,17.6776422 C32.3904894,17.6776422 33.5203199,18.8074727 33.5203199,20.1963726 C33.5203199,21.5852725 32.3904894,22.715103 31.0015895,22.715103 L31.0015895,22.715103 Z" id="setting"></path>
                </g>
            </g>
        </g>
    </g>
</svg>