<?xml version="1.0" encoding="UTF-8"?>
<svg width="24px" height="24px" viewBox="0 0 24 24" version="1.1" xmlns="http://www.w3.org/2000/svg" xmlns:xlink="http://www.w3.org/1999/xlink">
    <!-- Generator: Sketch 49 (51002) - http://www.bohemiancoding.com/sketch -->
    <title>soccer-ball</title>
    <desc>Created with Sketch.</desc>
    <defs></defs>
    <g id="Bets" stroke="none" stroke-width="1" fill="none" fill-rule="evenodd">
        <g id="LMbet_Bets" transform="translate(-97.000000, -1978.000000)" fill="#FFFFFF" fill-rule="nonzero">
            <g id="l4" transform="translate(70.000000, 1951.000000)">
                <g id="soccer-ball" transform="translate(27.000000, 27.000000)">
                    <path d="M12,0 C10.6065,0 9.273,0.2505 8.028,0.69 C8.0205,0.6915 8.0145,0.6945 8.0085,0.6975 C5.7555,1.4955 3.8145,2.9445 2.406,4.8225 C2.4045,4.8255 2.4015,4.8285 2.3985,4.833 C0.9,6.8355 0,9.312 0,12 C0,18.6165 5.3835,24 12,24 C18.6165,24 24,18.6165 24,12 C24,5.3835 18.6165,0 12,0 Z M21.3315,7.2075 C21.894,8.298 22.272,9.498 22.422,10.7685 L20.916,9.1245 L21.3315,7.2075 Z M20.181,5.4345 L19.4445,8.829 L17.091,9.981 L12.762,6.8265 L12.762,3.9 L15.8475,2.241 C17.5575,2.916 19.047,4.023 20.181,5.4345 Z M16.1205,11.13 L14.4705,15.75 L9.531,15.75 L7.905,11.1315 L12.0135,8.136 L16.1205,11.13 Z M12,1.5 C12.6015,1.5 13.1865,1.5615 13.761,1.659 L12.015,2.598 L10.269,1.6545 C10.833,1.5615 11.409,1.5 12,1.5 Z M8.178,2.2305 L11.2635,3.8955 L11.2635,6.8265 L6.936,9.981 L4.5705,8.826 L3.8355,5.412 C4.9725,4.005 6.4665,2.9025 8.178,2.2305 Z M2.682,7.1805 L3.1005,9.123 L1.578,10.7775 C1.7265,9.4935 2.1105,8.2815 2.682,7.1805 Z M3.3435,17.931 C2.364,16.506 1.7265,14.8305 1.551,13.02 L4.0905,10.2615 L6.4065,11.394 L8.151,16.3485 L6.6795,18.1155 L3.3435,17.931 Z M4.6725,19.5075 L6.4485,19.605 L6.9645,21.21 C6.123,20.748 5.355,20.172 4.6725,19.5075 Z M14.6745,22.1415 C13.8195,22.368 12.9255,22.5 12,22.5 C10.881,22.5 9.804,22.32 8.7915,21.9945 L7.848,19.056 L9.351,17.25 L14.652,17.25 L16.1295,19.0005 L14.6745,22.1415 Z M16.677,21.387 L17.529,19.5465 L19.695,19.119 C18.837,20.046 17.817,20.817 16.677,21.387 Z M17.301,18.063 L15.8505,16.3455 L17.6175,11.394 L19.923,10.2645 L22.4475,13.02 C22.2975,14.5815 21.795,16.0395 21.033,17.3265 L17.301,18.063 Z" id="top_ball"></path>
                </g>
            </g>
        </g>
    </g>
</svg>