<?xml version="1.0" encoding="UTF-8"?>
<svg width="17px" height="17px" viewBox="0 0 17 17" version="1.1" xmlns="http://www.w3.org/2000/svg" xmlns:xlink="http://www.w3.org/1999/xlink">
    <!-- Generator: Sketch 49 (51002) - http://www.bohemiancoding.com/sketch -->
    <title>telegram</title>
    <desc>Created with Sketch.</desc>
    <defs></defs>
    <g id="Home" stroke="none" stroke-width="1" fill="none" fill-rule="evenodd">
        <g id="LMbet_Home-1" transform="translate(-136.000000, -887.000000)" fill="#FFFFFF">
            <g id="content" transform="translate(50.000000, 25.000000)">
                <g id="sn" transform="translate(0.000000, 845.000000)">
                    <g id="insta" transform="translate(70.000000, 0.000000)">
                        <path d="M32.4917583,18.1695824 L30.2060876,31.8836063 C30.1763261,32.0562229 30.0810908,32.1901476 29.9203788,32.2853844 C29.8370466,32.3330027 29.7447874,32.3568116 29.6435984,32.3568116 C29.5781231,32.3568116 29.5066966,32.3419311 29.4293167,32.3121696 L25.3847511,30.6604154 L23.224078,33.2942937 C23.1169367,33.4311965 22.9711076,33.4996469 22.7865864,33.4996469 C22.7092065,33.4996469 22.6437322,33.4877425 22.5901616,33.4639333 C22.4770679,33.4222672 22.3862967,33.3523288 22.3178453,33.2541159 C22.2493939,33.155903 22.2151687,33.0472752 22.2151687,32.9282292 L22.2151687,29.8122173 L29.9293072,20.3570406 L20.3848465,28.6158115 L16.8581281,27.1694106 C16.6378931,27.0860784 16.518849,26.9223927 16.5009921,26.6783485 C16.4890875,26.4402566 16.5843228,26.2646665 16.7867009,26.1515729 L31.6435602,17.5803079 C31.7328446,17.5267372 31.82808,17.4999523 31.929269,17.4999523 C32.048315,17.4999523 32.1554547,17.5326894 32.2506915,17.5981647 C32.4471173,17.7410198 32.5274721,17.9314905 32.4917583,18.1695824 Z" id="telegram"></path>
                    </g>
                </g>
            </g>
        </g>
    </g>
</svg>