<?xml version="1.0" encoding="UTF-8"?>
<svg width="12px" height="14px" viewBox="0 0 12 14" version="1.1" xmlns="http://www.w3.org/2000/svg" xmlns:xlink="http://www.w3.org/1999/xlink">
    <!-- Generator: Sketch 50.2 (55047) - http://www.bohemiancoding.com/sketch -->
    <title>tennis</title>
    <desc>Created with Sketch.</desc>
    <defs></defs>
    <g id="Line" stroke="none" stroke-width="1" fill="none" fill-rule="evenodd">
        <g id="LMbet_Line" transform="translate(-29.000000, -1884.000000)" fill="#6D5D92" fill-rule="nonzero">
            <g id="Виды-Спорта-" transform="translate(10.000000, 805.000000)">
                <g id="sports-2" transform="translate(0.000000, 786.000000)">
                    <g id="icons" transform="translate(19.000000, 15.000000)">
                        <g id="tennis" transform="translate(0.000000, 278.000000)">
                            <path d="M1.49925,3 C2.328,3 3,2.32875 3,1.50075 C3.00075,0.67275 2.32875,0.00075 1.50075,0 L1.5,0 C0.672,0 0.00075,0.67125 0,1.5 C1.65232411e-16,2.328 0.6705,3 1.49925,3 Z M1.50075,0.75 C1.914,0.75 2.25,1.08675 2.25,1.5 C2.25,1.91325 1.91325,2.25 1.5,2.25 C1.086,2.25 0.75,1.91325 0.75,1.5 C0.75075,1.08675 1.08675,0.75075 1.50075,0.75 Z" id="Shape"></path>
                            <path d="M10.9554375,2.75903571 C10.2541875,2.05703571 9.3121875,1.71428571 8.3161875,1.71428571 C7.0674375,1.71428571 5.7339375,2.25353571 4.6869375,3.30053571 C3.6054375,4.38353571 3.0684375,5.77178571 3.1066875,7.05803571 C3.1066875,7.06328571 3.1036875,7.06853571 3.1036875,7.07378571 L3.0969375,7.39178571 C3.0774375,8.39528571 3.0646875,9.05828571 2.5824375,9.56603571 C2.5809375,9.56753571 2.5801875,9.56978571 2.5786875,9.57128571 L0.2154375,11.9352857 C-0.0718125,12.2232857 -0.0718125,12.6890357 0.2154375,12.9770357 L0.7359375,13.4975357 C0.8799375,13.6422857 1.0689375,13.7142857 1.2571875,13.7142857 C1.4454375,13.7142857 1.6336875,13.6422857 1.7776875,13.4982857 L4.1394375,11.1350357 C4.1416875,11.1335357 4.1446875,11.1327857 4.1469375,11.1305357 C4.6524375,10.6520357 5.3124375,10.6400357 6.3121875,10.6220357 L6.7029375,10.6130357 C7.9524375,10.6130357 9.3684375,10.0767857 10.4139375,9.02978571 C12.2949375,7.14878571 12.5379375,4.34078571 10.9554375,2.75903571 Z M1.2661875,12.9680357 L0.7456875,12.4662857 L2.5906875,10.6205357 L3.0946875,11.1245357 L1.2661875,12.9680357 Z M10.4251875,3.28928571 C10.6419375,3.50603571 10.7994375,3.76028571 10.9306875,4.02803571 L9.4561875,5.50253571 L8.2074375,4.25303571 L9.6834375,2.77628571 C9.9556875,2.90978571 10.2091875,3.07328571 10.4251875,3.28928571 Z M8.9259375,6.03278571 L7.3741875,7.58603571 L6.1254375,6.33728571 L7.6779375,4.78403571 L8.9259375,6.03278571 Z M8.3169375,2.46428571 C8.5134375,2.46428571 8.7031875,2.48303571 8.8869375,2.51378571 L7.6786875,3.72278571 L6.7501875,2.79503571 C7.2579375,2.58128571 7.7904375,2.46428571 8.3169375,2.46428571 Z M5.2171875,3.83078571 C5.4759375,3.57203571 5.7594375,3.35078571 6.0564375,3.16178571 L7.1476875,4.25378571 L5.5951875,5.80703571 L4.5219375,4.73303571 C4.7169375,4.41728571 4.9389375,4.10978571 5.2171875,3.83078571 Z M4.1656875,5.43728571 L5.0649375,6.33728571 L3.9121875,7.49078571 C3.8011875,6.83528571 3.8896875,6.12653571 4.1656875,5.43728571 Z M3.6316875,10.5867857 C3.6286875,10.5890357 3.6279375,10.5927857 3.6256875,10.5950357 L3.1186875,10.0880357 C3.1209375,10.0857857 3.1246875,10.0850357 3.1276875,10.0820357 C3.4306875,9.76178571 3.5979375,9.40253571 3.6976875,9.01253571 C3.8266875,9.21128571 3.9729375,9.40028571 4.1454375,9.57278571 C4.3164375,9.74378571 4.5024375,9.89153571 4.6981875,10.0197857 C4.3081875,10.1172857 3.9504375,10.2837857 3.6316875,10.5867857 Z M4.6756875,9.04253571 C4.4566875,8.82353571 4.2984375,8.56628571 4.1679375,8.29553571 L5.5951875,6.86753571 L6.8439375,8.11703571 L5.4106875,9.55103571 C5.1406875,9.41828571 4.8901875,9.25628571 4.6756875,9.04253571 Z M6.7846875,9.86678571 C6.5844375,9.86678571 6.3924375,9.84878571 6.2056875,9.81653571 L7.3749375,8.64653571 L8.2884375,9.56003571 C7.7986875,9.75728571 7.2894375,9.86678571 6.7846875,9.86678571 Z M9.8836875,8.49953571 C9.6099375,8.77403571 9.3076875,9.00653571 8.9911875,9.20303571 L7.9051875,8.11628571 L9.4569375,6.56378571 L10.5466875,7.65353571 C10.3584375,7.94903571 10.1461875,8.23703571 9.8836875,8.49953571 Z M9.9864375,6.03278571 L11.1871875,4.83128571 C11.3034375,5.50853571 11.2089375,6.24578571 10.9111875,6.95678571 L9.9864375,6.03278571 Z" id="Shape"></path>
                        </g>
                    </g>
                </g>
            </g>
        </g>
    </g>
</svg>