<?xml version="1.0" encoding="UTF-8"?>
<svg width="8px" height="8px" viewBox="0 0 8 8" version="1.1" xmlns="http://www.w3.org/2000/svg" xmlns:xlink="http://www.w3.org/1999/xlink">
    <!-- Generator: Sketch 49 (51002) - http://www.bohemiancoding.com/sketch -->
    <title>update_icon</title>
    <desc>Created with Sketch.</desc>
    <defs></defs>
    <g id="Authorization" stroke="none" stroke-width="1" fill="none" fill-rule="evenodd">
        <g id="Oikaa-Purchase" transform="translate(-570.000000, -362.000000)" fill="#868686" fill-rule="nonzero">
            <g id="Purchase">
                <g id="Change-Referrer" transform="translate(550.000000, 346.000000)">
                    <path d="M23.9296,16.001058 C23.93376,16.001058 23.9344,16.001058 23.93568,16.001058 C23.93792,16.001058 23.93792,16.001058 23.93856,16.001058 C23.93856,16.001058 23.93856,16.001058 23.93984,16.001058 C23.94048,16.001058 23.9424,16.001058 23.94304,16.001058 C23.94432,16.001058 23.94432,16.001058 23.94432,16.001058 C23.94432,16.001058 23.94432,16.001058 23.94528,16.001058 C23.9536,15.999138 23.95648,16.000418 23.96256,16.000418 C24.98816,16.000418 25.98496,16.407138 26.72128,17.121378 L27.5328,16.299298 C27.57184,16.259938 27.632,16.248098 27.68032,16.269218 C27.7312,16.290018 27.7648,16.339298 27.7648,16.394658 L27.7648,19.066978 C27.7648,19.141858 27.704,19.202658 27.62976,19.202658 L24.99104,19.202658 C24.98944,19.202658 24.98688,19.202658 24.98496,19.202658 C24.90944,19.202658 24.84928,19.142178 24.84928,19.066978 C24.84928,19.016098 24.87648,18.972258 24.91712,18.949538 L25.7168,18.138978 C25.24256,17.680738 24.62304,17.430818 23.94432,17.430818 C22.55808,17.437858 21.42976,18.573858 21.42976,19.981218 C21.44064,21.366178 22.57536,22.492898 23.98304,22.492898 L23.98016,23.922658 L23.96096,23.922658 C21.79104,23.922018 20.01376,22.156898 20,19.961058 C20,17.794978 21.76096,16.019938 23.9296,16.001058 Z" id="update_icon"></path>
                </g>
            </g>
        </g>
    </g>
</svg>