<?xml version="1.0" encoding="UTF-8"?>
<svg width="20px" height="12px" viewBox="0 0 20 12" version="1.1" xmlns="http://www.w3.org/2000/svg" xmlns:xlink="http://www.w3.org/1999/xlink">
    <!-- Generator: Sketch 50.2 (55047) - http://www.bohemiancoding.com/sketch -->
    <title>vk</title>
    <desc>Created with Sketch.</desc>
    <defs></defs>
    <g id="Bet" stroke="none" stroke-width="1" fill="none" fill-rule="evenodd">
        <g id="v2_LMbet_Account" transform="translate(-172.000000, -593.000000)" fill="#6B5C90">
            <g id="user-card" transform="translate(70.000000, 220.000000)">
                <g id="sn" transform="translate(102.000000, 370.000000)">
                    <path d="M10.98083,14.1531876 C10.98083,14.1531876 11.3417861,14.1138194 11.526666,13.9188991 C11.6958948,13.7403022 11.6900256,13.4032726 11.6900256,13.4032726 C11.6900256,13.4032726 11.6675269,11.8295072 12.4119377,11.5971392 C13.1455883,11.3686119 14.0875956,13.1190538 15.0873168,13.7921529 C15.8424877,14.3010581 16.4157134,14.1896751 16.4157134,14.1896751 L19.0871796,14.1531876 C19.0871796,14.1531876 20.4840503,14.0686901 19.8218084,12.9903872 C19.7670291,12.9020489 19.4354191,12.1924622 17.8360609,10.7348809 C16.160403,9.20912552 16.3853891,9.45589654 18.4024391,6.81631087 C19.6310592,5.20893859 20.122116,4.22761573 19.9685385,3.80800899 C19.8227866,3.40664602 18.9189291,3.51322805 18.9189291,3.51322805 L15.91194,3.53147182 C15.91194,3.53147182 15.6889102,3.50170567 15.5235943,3.59868572 C15.3621912,3.69374537 15.2575237,3.91555122 15.2575237,3.91555122 C15.2575237,3.91555122 14.7821181,5.15900827 14.1472658,6.21714701 C12.808109,8.44864832 12.2730332,8.56675273 12.0539162,8.42848415 C11.5442736,8.10489725 11.6714397,7.13029578 11.6714397,6.43799267 C11.6714397,4.27466546 12.0059844,3.37303907 11.0209362,3.13971083 C10.6942172,3.06193476 10.4535798,3.01104424 9.61721817,3.00240245 C8.54413195,2.99184027 7.63636166,3.00624324 7.12182806,3.25301426 C6.7794578,3.4172082 6.5153436,3.78400403 6.67674672,3.80512839 C6.87532147,3.83105375 7.32529382,3.92419301 7.5639748,4.24297891 C7.87210804,4.65490406 7.86134783,5.57861501 7.86134783,5.57861501 C7.86134783,5.57861501 8.03840216,8.12506142 7.44756891,8.44096673 C7.0425938,8.65797159 6.48697578,8.21532008 5.29259266,6.19026145 C4.68121719,5.15324708 4.21950644,4.00677008 4.21950644,4.00677008 C4.21950644,4.00677008 4.13049017,3.79264581 3.97104345,3.67742199 C3.7783379,3.53819321 3.5093327,3.49498428 3.5093327,3.49498428 L0.652008312,3.51322805 C0.652008312,3.51322805 0.222578183,3.52475043 0.0650878629,3.70814834 C-0.0747948441,3.87042189 0.0543276547,4.20745156 0.0543276547,4.20745156 C0.0543276547,4.20745156 2.29147277,9.34547371 4.8250127,11.9351291 C7.14823948,14.3087397 9.7854687,14.1531876 9.7854687,14.1531876 L10.98083,14.1531876 Z" id="vk"></path>
                </g>
            </g>
        </g>
    </g>
</svg>